<?xml version="1.0" encoding="UTF-8"?><svg id="Layer_2" xmlns="http://www.w3.org/2000/svg" width="598.53" height="598.6" viewBox="0 0 598.53 598.6"><g id="_Слой_1"><g><g><rect y="406.21" width="67.83" height="192.39" fill="#5213b0"/><rect x="406.13" width="192.39" height="67.83" fill="#5213b0"/><path d="M0,598.6L598.53,.08l-.08-.08h-212.48c-11.55,0-22.64,4.59-30.8,12.76L12.76,355.17c-8.17,8.17-12.76,19.25-12.76,30.8v212.63Z" fill="#761cfe"/></g><g><path d="M89.01,433.68c-5.64,5.64-12.17,8.42-19.59,8.35-7.42-.07-13.88-2.86-19.37-8.35-5.53-5.53-8.32-12-8.38-19.4-.05-7.4,2.74-13.92,8.38-19.56,3.39-3.39,7.31-5.73,11.77-7.01,4.46-1.28,8.85-1.37,13.17-.27l-2.68,10.06c-2.6-.75-5.24-.74-7.89,.03-2.66,.77-5.06,2.22-7.2,4.36-3.64,3.64-5.43,7.72-5.38,12.23,.05,4.51,1.9,8.59,5.54,12.23,3.6,3.6,7.66,5.43,12.18,5.49,4.51,.05,8.59-1.74,12.23-5.38,2.14-2.14,3.6-4.55,4.39-7.22,.79-2.68,.8-5.28,.05-7.82l10.06-2.67c1.11,4.32,1.03,8.7-.24,13.14-1.27,4.44-3.61,8.37-7.04,11.8Z" fill="#fff"/><path d="M135.17,376.22c-.02,7.55-2.74,14.03-8.16,19.45-5.42,5.42-11.9,8.14-19.43,8.14s-14.02-2.73-19.48-8.19c-5.46-5.46-8.19-11.95-8.19-19.48,0-7.53,2.71-14.01,8.13-19.43,5.42-5.42,11.91-8.14,19.45-8.16,7.55-.02,14.05,2.7,19.51,8.16,5.46,5.46,8.18,11.96,8.16,19.51Zm-27.46,17.39c4.62-.02,8.64-1.74,12.07-5.17,3.43-3.43,5.15-7.45,5.16-12.07,.02-4.62-1.76-8.71-5.32-12.28-3.57-3.57-7.67-5.35-12.31-5.35-4.64,0-8.67,1.71-12.09,5.14-3.43,3.43-5.14,7.46-5.14,12.09s1.78,8.74,5.35,12.31c3.57,3.57,7.66,5.34,12.28,5.33Z" fill="#fff"/><path d="M150.13,296.13l37.46,37.46-7.33,7.33-24.3-24.3,6.85,27.94-.86,.86-27.88-6.8,24.25,24.25-7.39,7.39-37.46-37.46,7.6-7.6,28.47,6.96-7.01-28.42,7.6-7.6Z" fill="#fff"/><path d="M157.09,289.17l7.39-7.39,37.46,37.46-7.39,7.39-37.46-37.46Z" fill="#fff"/><path d="M193.11,253.15l7.38-7.39,37.46,37.46-5.62,5.62-38.96-6.85,22.91,22.91-7.38,7.39-37.46-37.46,5.62-5.62,38.91,6.8-22.85-22.85Z" fill="#fff"/><path d="M261.56,219.38l2.89,2.89c5.35,5.35,7.98,11.4,7.87,18.14-.11,6.74-2.87,12.83-8.3,18.25-5.78,5.78-12.45,8.69-20.02,8.73-7.56,.03-14.06-2.66-19.48-8.08-5.46-5.46-8.2-11.96-8.22-19.51-.02-7.55,2.76-14.1,8.32-19.67,3.5-3.5,7.49-5.9,11.96-7.2,4.48-1.3,8.84-1.43,13.09-.4l-2.68,9.96c-2.42-.64-5.02-.54-7.79,.29-2.77,.84-5.26,2.36-7.47,4.58-3.57,3.57-5.33,7.67-5.3,12.31,.04,4.64,1.84,8.74,5.41,12.31,3.53,3.53,7.62,5.28,12.26,5.24,4.64-.04,8.88-1.98,12.74-5.83,2.86-2.85,4.59-5.85,5.19-8.99,.61-3.14,.14-6.15-1.39-9.05l-11.35,11.35-6.53-6.53,18.79-18.79Z" fill="#fff"/><path d="M313.85,208.84c-3.71,3.71-7.66,6-11.85,6.88-4.19,.88-8.23,.4-12.12-1.42l2.62-10.01c5.28,2.36,10.06,1.39,14.34-2.89,2.07-2.07,3.21-3.96,3.42-5.67,.21-1.71-.25-3.14-1.39-4.28-1.32-1.32-2.93-1.76-4.84-1.31-1.91,.45-4.81,1.76-8.7,3.93-2.18,1.18-4.09,2.1-5.75,2.76-1.66,.66-3.49,1.15-5.49,1.47-2,.32-3.94,.14-5.83-.53-1.89-.68-3.69-1.87-5.4-3.59-3.39-3.39-4.89-7.3-4.5-11.72,.39-4.42,2.28-8.33,5.67-11.72,3.03-3.03,6.44-4.96,10.22-5.78,3.78-.82,7.64-.55,11.56,.8l-2.62,9.79c-4.71-1.71-8.71-.93-11.99,2.35-1.53,1.53-2.39,3.09-2.57,4.66-.18,1.57,.29,2.91,1.39,4.01,1.18,1.18,2.62,1.64,4.33,1.39,1.71-.25,4.39-1.34,8.03-3.26,1.5-.78,2.64-1.37,3.43-1.77,.78-.39,1.89-.89,3.32-1.5,1.43-.61,2.59-1.01,3.5-1.2,.91-.2,2.03-.35,3.35-.46,1.32-.11,2.49-.03,3.5,.24,1.02,.27,2.12,.72,3.29,1.36,1.18,.64,2.3,1.5,3.37,2.57,3.46,3.46,4.95,7.47,4.47,12.02-.48,4.55-2.74,8.84-6.77,12.87Z" fill="#fff"/><path d="M357.87,153.53c-.02,7.55-2.74,14.03-8.16,19.45-5.42,5.42-11.9,8.14-19.43,8.14s-14.02-2.73-19.48-8.19c-5.46-5.46-8.19-11.95-8.19-19.48,0-7.53,2.71-14.01,8.14-19.43,5.42-5.42,11.91-8.14,19.46-8.16,7.54-.02,14.05,2.7,19.51,8.16,5.46,5.46,8.18,11.96,8.16,19.51Zm-27.46,17.39c4.62-.02,8.64-1.74,12.07-5.16,3.42-3.43,5.15-7.45,5.17-12.07,.02-4.62-1.76-8.72-5.33-12.28-3.57-3.57-7.67-5.35-12.31-5.35-4.64,0-8.67,1.71-12.09,5.14-3.42,3.42-5.14,7.46-5.14,12.09s1.78,8.74,5.35,12.31c3.57,3.57,7.66,5.34,12.28,5.32Z" fill="#fff"/><path d="M400.26,111.14c-.02,7.55-2.74,14.03-8.16,19.45-5.42,5.42-11.9,8.14-19.43,8.14-7.53,0-14.02-2.73-19.48-8.19-5.46-5.46-8.19-11.95-8.19-19.48s2.71-14,8.14-19.43c5.42-5.42,11.91-8.14,19.46-8.16,7.54-.02,14.05,2.7,19.51,8.16,5.46,5.46,8.18,11.96,8.16,19.51Zm-27.46,17.39c4.62-.02,8.64-1.74,12.07-5.16,3.43-3.43,5.15-7.45,5.17-12.07,.02-4.62-1.76-8.71-5.33-12.28-3.57-3.57-7.67-5.35-12.31-5.35s-8.67,1.71-12.09,5.14c-3.43,3.43-5.14,7.46-5.14,12.09s1.79,8.74,5.35,12.31c3.57,3.57,7.66,5.34,12.28,5.33Z" fill="#fff"/><path d="M400.23,46.03l7.39-7.39,37.46,37.46-5.62,5.62-38.96-6.85,22.91,22.91-7.39,7.39-37.46-37.46,5.62-5.62,38.91,6.8-22.85-22.85Z" fill="#fff"/></g></g></g></svg>