<?xml version="1.0" encoding="UTF-8"?>
<svg id="Layer_2"
    xmlns="http://www.w3.org/2000/svg" width="116.96" height="116.96" viewBox="0 0 116.96 116.96">
    <g id="Layer_1-2">
        <g>
            <circle cx="58.48" cy="58.48" r="58.48" fill="#e6340d"/>
            <path d="M64.89,58.46l12.99,14.85c.63,.72,.85,1.23,1.49,2.01l3.11,3.86c2.13,2.88,5.05,7.82,6,11.72-9.04-3.6-20.02-13.5-28.02-19.73-1.34-1.04-2.56-2.08-4.06-3-4.51,5.4-6.64,8.05-10.36,14.51-2.03,3.53-2.25,5.51-5.31,7.26-3.32,1.9-7.16,1.11-9.46-1.11-6.91-6.68,1.38-14.17,5.54-20.28,3.39-4.98,6.9-7.51,8.71-10.1l-11.39-13.7c-1.12-1.46-1.59-2.23-2.55-3.74-.78-1.24-2-2.72-2.45-3.83-2.97-7.26,4.91-13.8,11.65-10.25,2.72,1.43,3.48,4.37,5.24,7.32,1.75,2.94,3.07,5.01,4.97,7.6,1.78,2.44,3.4,5.07,5.5,7l15.32-12.04c3.71-2.87,13.06-9.42,16.67-10.76-.67,4.15-4.8,10.04-7.28,13.52-1,1.41-1.97,2.36-3.19,3.78-2.06,2.42-3.58,4.8-6.44,7.54l-6.67,7.54Z" fill="#fff" fill-rule="evenodd"/>
        </g>
    </g>
</svg>