<?xml version="1.0" encoding="UTF-8"?>
<svg id="Layer_2"
    xmlns="http://www.w3.org/2000/svg" width="106.56" height="115.55" viewBox="0 0 106.56 115.55">
    <g id="Layer_1-2">
        <g>
            <g>
                <rect x="13.31" y="47.81" width="22.68" height="22.68" fill="#5b217b"/>
                <rect x="41.94" y="47.81" width="22.68" height="22.68" fill="#5b217b"/>
                <rect x="70.57" y="47.81" width="22.68" height="22.68" fill="#5b217b"/>
                <rect x="41.94" y="75.86" width="22.68" height="22.68" fill="#5b217b"/>
                <rect x="70.57" y="75.86" width="22.68" height="22.68" fill="#5b217b"/>
                <rect x="13.31" y="75.86" width="22.68" height="22.68" fill="#5b217b"/>
            </g>
            <path d="M12.76,9.47H93.8c7.02,0,12.76,5.74,12.76,12.76V102.79c0,7.02-5.74,12.76-12.76,12.76H12.76c-7.02,0-12.76-5.74-12.76-12.76V22.22c0-7.02,5.74-12.76,12.76-12.76h0ZM4.35,31.98H102.21v-6.47c0-6.44-5.27-11.71-11.71-11.71H16.07c-6.44,0-11.71,5.27-11.71,11.71v6.47h0Zm97.86,4.8H4.35v62.72c0,6.44,5.27,11.71,11.71,11.71H90.49c6.44,0,11.71-5.27,11.71-11.71V36.78Z" fill="#5b217b" fill-rule="evenodd"/>
            <g>
                <path d="M24.66,0h0c2.78,0,5.05,2.27,5.05,5.05v14.8c0,2.78-2.27,5.05-5.05,5.05h0c-2.78,0-5.05-2.27-5.05-5.05V5.05c0-2.78,2.27-5.05,5.05-5.05Z" fill="#5b217b" fill-rule="evenodd"/>
                <path d="M84.59,0h0c2.78,0,5.05,2.27,5.05,5.05v14.8c0,2.78-2.27,5.05-5.05,5.05h0c-2.78,0-5.05-2.27-5.05-5.05V5.05c0-2.78,2.27-5.05,5.05-5.05Z" fill="#5b217b" fill-rule="evenodd"/>
            </g>
        </g>
    </g>
</svg>