<?xml version="1.0" encoding="UTF-8"?>
<svg id="Layer_2"
  xmlns="http://www.w3.org/2000/svg" width="115.84" height="104.27" viewBox="0 0 115.84 104.27">
  <g id="Layer_1-2">
    <g>
      <path d="M91.83,36.36l-10.48,11.31c.4,1.41,1.35,2.84,1.25,8.82-.19,12.15-7.38,24.04-18.18,29.72-20.04,10.54-44.06-.25-49.72-21.99-4.33-16.66,5.13-34.26,21.6-40.4,6.55-2.44,14.04-2.77,20.93-.87,2.21,.61,3.99,1.61,5.82,2.18l10.25-10.16c-2.8-.92-5.79-3.97-15.4-6.02-6.41-1.37-13.41-1.31-19.74,.03C15.79,13.71-.35,33.65,0,56.7c.35,23.06,16.93,42.42,39.4,46.72,13.66,2.61,26.71-.94,36.83-8.39,12.55-9.23,20.61-24.44,19.8-41.3-.23-4.78-1.84-13.56-4.2-17.37Z" fill="#57b13d" fill-rule="evenodd"/>
      <path d="M50.19,53.43l-13.16-20.83-16.07,11.87,30.07,35.2c.52-.58,4.86-9.46,6.02-11.42,5.51-9.29,7.41-13.07,13.56-21.99,8.17-11.83,13.6-18.21,21.33-26.21,9.77-10.11,16.01-14.69,23.91-17.37l-.56-2.69c-6.29,.74-16.06,6.5-20.29,9.3-4.49,2.98-15.45,11.52-19.33,15.8-5.6,5.49-10.08,10.38-15.33,16.2-3.04,3.95-6.92,8.12-10.16,12.14Z" fill="#57b13d" fill-rule="evenodd"/>
    </g>
  </g>
</svg>