<?xml version="1.0" encoding="UTF-8"?>
<svg id="Layer_2"
    xmlns="http://www.w3.org/2000/svg" width="118.04" height="118.19" viewBox="0 0 118.04 118.19">
    <g id="Layer_1-2">
        <path d="M56,51.98c4.74-2.07,8.77,.61,10.14,3.89,1.24,2.97,.72,9.99,.72,13.56,0,7.88,2.51,21.56-4.9,24.47-4.37,1.72-8.35-.76-9.97-3.77-1.6-2.99-.87-23.82-.88-28.56-.01-5.72,.77-7.8,4.88-9.6h0Zm.55-24.63c11.53-3.5,15.13,13.43,4.95,16.34-10.97,3.14-15.87-13.03-4.95-16.34h0Zm61.27,35.93c2.16-24.13-12.04-46.13-31.6-56.57C50.3-12.46,3.67,11.3,.18,54.59c-1.43,17.66,5.97,34.81,15.05,43.79,2.27,2.25,4.73,5.22,7.67,7.43,2.4,1.8,5.79,4.01,8.88,5.66,28.37,15.14,64.15,3.86,79.6-25.15,3.46-6.49,5.68-14.46,6.45-23.03Z" fill="#1dbcec" fill-rule="evenodd"/>
    </g>
</svg>