<?xml version="1.0" encoding="UTF-8"?>
<svg id="Layer_2"
  xmlns="http://www.w3.org/2000/svg" width="117.67" height="116.12" viewBox="0 0 117.67 116.12">
  <g id="Layer_1-2">
    <g>
      <path d="M12.84,35.86L49.38,12.78l38.1,24.57c.84,.51,4.89,2.66,5.86-.71,.54-1.88-.66-3.8-2.5-5.06L54.1,6.35c-2.17-1.49-6.17-1.51-8.34,0L7.69,32.92c-1.92,1.34-2.57,2.62-1.56,4.23,1.89,2.99,3.9,.48,6.7-1.29h0Zm23.24,13.86c-1.47,0-2.67,1.2-2.67,2.67v34.67h-15.9c-1.55,0-2.82-1.27-2.82-2.82V40.91L49.36,19.01l34.46,21.9v43.33c0,1.55-1.27,2.82-2.82,2.82h-15.69V52.39c0-1.47-1.2-2.67-2.67-2.67h-26.58Zm24.6,37.33v-30.68c0-.64-.53-1.17-1.17-1.17h-19.96c-.64,0-1.17,.53-1.17,1.17v30.68h22.3Zm29.47-43.52v46.41c0,1.83-1.5,3.34-3.34,3.34H11.69c-1.83,0-3.34-1.5-3.34-3.34V43.97c-7.31,1.55-11.5-8.01-5.47-12.34L45.06,1.35c2.52-1.81,7.23-1.81,9.75,0l42.17,30.28c6.71,4.82,.7,15.25-6.83,11.9Z" fill="#5b217b" fill-rule="evenodd"/>
      <path d="M51.06,80.37c0,9.8,1.09,14.24,6.32,21.96,4.44,6.56,11.66,10.86,19.36,12.81,14.82,3.76,30.49-3.74,37.46-17.68,5.41-10.81,4.5-24.72-2.72-34.26-.56-.74-1.06-1.52-1.69-2.19-2.12-2.25-3.46-3.8-6.25-5.67-6.79-4.54-11.77-6.04-20.58-6.04-5.03,0-8.98,1.57-12.52,3.01-10.17,4.15-19.37,16.85-19.37,28.05Z" fill="#1dbcec" fill-rule="evenodd"/>
      <g>
        <path d="M84.36,56.94h0c2.05,0,3.73,1.68,3.73,3.73v44.09c0,2.05-1.68,3.73-3.73,3.73h0c-2.05,0-3.73-1.68-3.73-3.73V60.67c0-2.05,1.68-3.73,3.73-3.73Z" fill="#fff" fill-rule="evenodd"/>
        <path d="M58.59,82.71h0c0-2.05,1.68-3.73,3.73-3.73h44.09c2.05,0,3.73,1.68,3.73,3.73h0c0,2.05-1.68,3.73-3.73,3.73H62.32c-2.05,0-3.73-1.68-3.73-3.73Z" fill="#fff" fill-rule="evenodd"/>
      </g>
    </g>
  </g>
</svg>