<?xml version="1.0" encoding="UTF-8"?>
<svg id="Layer_2"
  xmlns="http://www.w3.org/2000/svg" width="101.6" height="105.08" viewBox="0 0 101.6 105.08">
  <g id="Layer_1-2">
    <g>
      <path d="M63.92,98.21h3.81v3.39h-2.33c-.16-.68-.39-1.01-.71-1.62-.18-.35-.26-.49-.43-.84-.18-.38-.23-.66-.35-.92h0Zm-41.7,3.39h-1.91v-3.39h4.02c-.32,.61-.58,1.15-.92,1.84-.28,.57-.53,1.55-1.2,1.55h0Zm-1.91-28.36c0,7.84,.49,6.1-1.97,7.13-.92,.39-1.18,.66-2.26,.91,.32,1.36,1.18,1.89,1.48,3.18,.97-.23,3.58-1.46,5.76-2.07,2.11-.59,4.1-1.12,6.33-1.5,2.32-.39,4.39-.75,6.95-.88,9.1-.45,5.73-.45,14.82,0,4.59,.23,11.87,1.65,16.15,3.33,1.05,.41,1.82,.87,2.9,1.12,.3-1.28,1.16-1.81,1.48-3.18-1.08-.25-1.34-.52-2.26-.91-2.43-1.02-1.97,.66-1.97-6.71,0-6.88,6.15-11.03,11.92-8.54,5.9,2.55,6.31,10.51,2.3,13.86-.73,.61-1.78,1.36-2.76,1.69-1.32,.44-3.45,.6-3.85,.8-3.05,1.5,2.72,13.35-4.86,13.35H17.57c-7.06,0-2.43-11.04-4.49-13.08-.92-.91-8.26,.13-9.59-7.99-.18-1.09,.07-2.69,.38-3.62,2.47-7.46,13.02-7.49,15.73-.62,.36,.92,.72,2.54,.72,3.73h0Zm-20.32-1.06c0,4.91,1.82,8.46,5.7,10.81,4.22,2.55,4.52,.16,4.47,3.36-.07,4.4-.65,7.77,2.38,10.32,1.23,1.03,2.62,1.54,4.39,1.54,0,7.78-1,6.77,6.77,6.77,1.47,0,2.05-1.77,2.61-2.89,.5-1,1.61-2.93,1.83-3.88h31.75l2.68,5.57c.86,1.79,3.19,1.2,6.84,1.2,2.37,0,1.69-3.16,1.69-6.77,2.8,0,5.23-1.56,6.27-4.1,.95-2.34,.51-6.39,.51-9.44,.46-.22,1.33-.33,1.99-.55,5.17-1.7,8.17-6.02,8.17-11.94s-5.45-11.22-11.22-11.22c-4.78,0-8.08,1.74-10.46,5.2-2.44,3.54-2.02,6.7-2.02,12.37l-8.34-1.6c-10.03-1.41-20.33-.9-30.2,1.16-.75,.16-1.37,.38-2.1,.44,0-5.87,.49-8.65-2-12.4-2.3-3.46-5.73-5.17-10.49-5.17-5.77,0-11.22,5.45-11.22,11.22Z" fill="#5b217b" fill-rule="evenodd"/>
      <path d="M87.63,98.21h3.81v3.39h-2.33l-1.48-3.39h0ZM40.64,6.35v2.12h3.39c0-2.64,.33-5.08,4.02-5.08h21.38V38.95h3.39V3.39h21.38c2.59,0,4.02,1.43,4.02,4.02V90.81c0,2.6-1.43,4.02-4.02,4.02h-14.61v3.39c5.1,0,3.51-1.11,6.71,5.57,.86,1.79,3.19,1.2,6.84,1.2,2.37,0,1.69-3.16,1.69-6.77,2.03,0,3.56-.68,4.82-1.95,.84-.84,1.95-2.61,1.95-4.19V6.14c0-2.8-2.95-6.14-6.35-6.14H46.99c-3.27,0-6.35,3.08-6.35,6.35Z" fill="#5b217b" fill-rule="evenodd"/>
      <path d="M15.24,15.24h27.09c.36,1.55,.51,6.2,.79,8.31,.2,1.51,.14,2.84,.3,4.35,.12,1.11,.39,3.06,.39,4.27H13.76l1.48-16.93h0Zm11.85-3.39c-17.44,0-14.78-1.13-15.51,4.39-.22,1.68-.36,4.07-.54,5.81l-.88,12.03c0,.83,.79,1.48,1.69,1.48h15.24v3.39h3.39v-3.39h15.24c2.73,0,1.44-3.76,1.27-7.2l-.97-11.94c-.83-5.68,2.21-4.57-15.54-4.57v-3.39h-3.39v3.39Z" fill="#1dbcec" fill-rule="evenodd"/>
      <path d="M10.16,48.68v8.89h3.39v-7.83c0-2.6,1.43-4.02,4.02-4.02h52.92c2.6,0,4.02,1.43,4.02,4.02v7.83h3.39v-9.1c0-2.8-2.95-6.14-6.35-6.14H16.51c-3.27,0-6.35,3.08-6.35,6.35Z" fill="#5b217b" fill-rule="evenodd"/>
      <path d="M10.16,72.81c0-2.14,3.39-2.14,3.39,0s-3.39,2.14-3.39,0h0Zm-3.39-.42c0,7.38,10.16,7.38,10.16,0,0-2.59-2.22-4.66-5.5-4.66-2.33,0-4.66,2.33-4.66,4.66Z" fill="#5b217b" fill-rule="evenodd"/>
      <path d="M74.51,72.81c0-2.14,3.39-2.14,3.39,0s-3.39,2.14-3.39,0h0Zm-3.39-.42c0,7.38,10.16,7.38,10.16,0,0-2.59-2.22-4.66-5.5-4.66-2.33,0-4.66,2.33-4.66,4.66Z" fill="#5b217b" fill-rule="evenodd"/>
      <rect x="33.87" y="52.49" width="3.39" height="3.39" fill="#5b217b"/>
      <rect x="50.8" y="52.49" width="3.39" height="3.39" fill="#5b217b"/>
      <rect x="59.27" y="60.96" width="3.39" height="3.39" fill="#5b217b"/>
      <rect x="25.4" y="60.96" width="3.39" height="3.39" fill="#5b217b"/>
      <rect x="42.33" y="60.96" width="3.39" height="3.39" fill="#5b217b"/>
      <rect x="33.87" y="69.43" width="3.39" height="3.39" fill="#5b217b"/>
      <rect x="50.8" y="69.43" width="3.39" height="3.39" fill="#5b217b"/>
    </g>
  </g>
</svg>