<?xml version="1.0" encoding="UTF-8"?>
<svg id="Layer_2"
  xmlns="http://www.w3.org/2000/svg" width="111.19" height="111.19" viewBox="0 0 111.19 111.19">
  <g id="Layer_1-2">
    <g>
      <path d="M55.6,0c30.71,0,55.6,24.89,55.6,55.6s-24.89,55.6-55.6,55.6v-5.38c27.73,0,50.21-22.48,50.21-50.21S83.33,5.38,55.6,5.38V0Zm0,111.19C24.89,111.19,0,86.3,0,55.6S24.89,0,55.6,0V5.38C27.86,5.38,5.38,27.86,5.38,55.6s22.48,50.21,50.21,50.21v5.38Z" fill="#1dbcec" fill-rule="evenodd"/>
      <g>
        <path d="M55.6,59.22l31.95-24.1v38.69c0,2.06-1.68,3.74-3.74,3.74h-28.21v-2.06h25.77c1.86,0,3.38-1.52,3.38-3.38v-31.56l-29.16,21.78v-3.11Zm-.12,.09l.12-.09v3.11l-.11,.08-29.05-22.16v31.86c0,1.86,1.52,3.38,3.38,3.38h25.77v2.06H27.39c-2.06,0-3.74-1.68-3.74-3.74V34.79l31.83,24.53Z" fill="#5b217b" fill-rule="evenodd"/>
        <path d="M55.6,33.64h29.45l-29.45,22.56v-3.02l23.22-17.37h-23.22v-2.17Zm-29.45,0h29.45v2.17h-23.22l23.22,17.37v3.02l-29.45-22.56Z" fill="#5b217b" fill-rule="evenodd"/>
      </g>
    </g>
  </g>
</svg>