<?xml version="1.0" encoding="UTF-8"?>
<svg id="Layer_2"
  xmlns="http://www.w3.org/2000/svg" width="103.15" height="83.86" viewBox="0 0 103.15 83.86">
  <g id="Layer_1-2">
    <g>
      <g>
        <path d="M38.18,35.76l-3.28-3.35c-.44-.45-.43-1.17,.01-1.6l12.52-12.24c.44-.43,1.18-.42,1.6,.01l3.29,3.35c.43,.44,.43,1.17-.01,1.6l-.75,.74,43.18,43.27,1.24-1.21c.44-.43,1.18-.42,1.6,.01l3.29,3.35c.43,.44,.43,1.17-.01,1.6l-12.52,12.24c-.44,.43-1.17,.43-1.6-.01l-3.28-3.35c-.44-.45-.43-1.17,.01-1.6l.82-.81L41.07,34.52l-1.28,1.25c-.44,.43-1.17,.43-1.6-.01h0Zm9.15-8.59l-4.52,4.52,43.24,43.24,4.69-4.69L47.33,27.17Z" fill="#5b217b" fill-rule="evenodd"/>
        <path d="M6.69,12.99c8.79-8.18,23.69-9.18,33.61,.13l.71,1.01,.86-.84c.44-.43,1.18-.42,1.6,.01l3.29,3.35c.43,.44,.43,1.17-.01,1.6l-12.52,12.24c-.44,.43-1.17,.43-1.6-.01l-3.28-3.35c-.44-.45-.43-1.17,.01-1.6l1.41-1.38-.81-.69c-4.05-3.06-8.34-3.69-13.04-.4l.77,.76c.44,.43,.44,1.17,.02,1.6l-3.29,3.35c-.43,.43-1.16,.45-1.6,.02L.34,16.51c-.44-.43-.45-1.16-.02-1.6l3.29-3.35c.44-.44,1.17-.45,1.6-.02l1.47,1.45h0Zm3.16,3.11l4.89,4.82c6.64-4.57,10.67-3.79,17.47,.97l5.24-5.24c-9.81-7.32-18.34-8.12-27.6-.55Z" fill="#5b217b" fill-rule="evenodd"/>
      </g>
      <g>
        <path d="M48.92,44.96l8.65,8.65-23.9,27.35c-9.4,7.26-19.95-3.57-12.14-12.14l27.4-23.86h0Zm-22.54,26.64c-2.13,0-3.86,1.73-3.86,3.86s1.73,3.86,3.86,3.86,3.86-1.73,3.86-3.86-1.73-3.86-3.86-3.86Z" fill="#1dbcec" fill-rule="evenodd"/>
        <path d="M62.44,33.1l3.49-3.49c3.88-5.09,2.78-9.11,2.6-12.82-.53-10.82,10.78-18.9,21.55-16.31l-8.18,8.5c-1.35,1.59-1.27,3.12,0,4.58l6.99,6.99c1.49,1.4,3.05,1.29,4.67,0l8.36-8.36c4.78,8.53-5.05,20.52-14.04,21.58-3.52,.41-7.04-1.08-10.93,.28-1.85,.64-3.55,2.26-5.64,3.97l-1.9,1.95-6.95-6.86Z" fill="#1dbcec" fill-rule="evenodd"/>
      </g>
    </g>
  </g>
</svg>