<?xml version="1.0" encoding="UTF-8"?>
<svg id="Layer_2"
  xmlns="http://www.w3.org/2000/svg" width="105.39" height="106.92" viewBox="0 0 105.39 106.92">
  <g id="Layer_1-2">
    <g>
      <path d="M45.94,0c14.29,0,25.88,11.59,25.88,25.88s-11.59,25.88-25.88,25.88-25.88-11.59-25.88-25.88S31.65,0,45.94,0h0Zm0,6.96c-10.45,0-18.92,8.47-18.92,18.92s8.47,18.92,18.92,18.92,18.92-8.47,18.92-18.92S56.39,6.96,45.94,6.96Z" fill="#5b217b" fill-rule="evenodd"/>
      <path d="M10.54,101.33H54.48c-5.08-5.68-8.18-13.18-8.18-21.4,0-8.84,3.58-16.85,9.36-22.66h-11.51C29.78,57.27,0,63.17,0,77.43v13.36c0,5.8,4.74,10.54,10.54,10.54h0Zm3.72-4.74c-4.55,0-8.27-3.72-8.27-8.27v-10.49c0-9.13,20.17-15.82,31.46-15.82h9.03c-4.54,4.56-7.35,11.09-7.35,17.79s2.43,12.34,6.42,16.8H14.25Z" fill="#5b217b" fill-rule="evenodd"/>
      <path d="M78.4,52.95c14.9,0,26.99,12.08,26.99,26.99s-12.08,26.99-26.99,26.99-26.99-12.08-26.99-26.99,12.08-26.99,26.99-26.99h0Zm11.53,10.39c-3.27-2.28-7.24-3.61-11.53-3.61-11.16,0-20.2,9.05-20.2,20.2,0,4.29,1.34,8.26,3.61,11.53l28.12-28.12h0Zm-22.68,33.44c3.2,2.12,7.03,3.36,11.15,3.36,11.16,0,20.2-9.05,20.2-20.2,0-4.3-1.34-8.29-3.64-11.56l-27.72,28.41Z" fill="#e3000f" fill-rule="evenodd"/>
    </g>
  </g>
</svg>