<?xml version="1.0" encoding="UTF-8"?>
<svg id="Layer_2"
    xmlns="http://www.w3.org/2000/svg" width="111.19" height="111.19" viewBox="0 0 111.19 111.19">
    <g id="Layer_1-2">
        <g>
            <path d="M55.6,0c30.71,0,55.6,24.89,55.6,55.6s-24.89,55.6-55.6,55.6v-5.38c27.73,0,50.21-22.48,50.21-50.21S83.33,5.38,55.6,5.38V0Zm0,111.19C24.89,111.19,0,86.3,0,55.6S24.89,0,55.6,0V5.38C27.86,5.38,5.38,27.86,5.38,55.6s22.48,50.21,50.21,50.21v5.38Z" fill="#1dbcec" fill-rule="evenodd"/>
            <g>
                <path d="M55.58,90.31h17.74c8.26,0,7.72-5.5,7.72-11.01V37.82c-17.69,0-15.73,1.73-15.73-16.78h-9.74v2.88h6.8c0,16.97-.06,16.84,15.29,16.84v36.57c0,5.06,.47,10.1-6.7,10.1h-15.39v2.88Zm-17.09,0h17.09v-2.88h-14.83c-6.15,0-6.8-4.5-6.85-9.39l-.42-47.12c0-3.85,2.98-6.99,6.62-6.99h15.48v-2.88h-17.84c-4.2,0-7.63,3.43-7.63,7.63l.49,51.4c.05,5.34,.8,10.24,7.89,10.24Z" fill="#5b217b" fill-rule="evenodd"/>
                <path d="M69.12,20.88v12.82h11.96l-11.96-12.82Z" fill="#1dbcec" fill-rule="evenodd"/>
                <path d="M46.56,64.85c-1.09,1.81-1.59,2.46-2.81,3.94-.38,.45-2.84,3.34-4.1,2.2-.77-.69,.31-1.9,.64-2.26,.27-.29,.57-.53,.9-.8,1.44-1.17,2.65-1.71,4.24-2.56,.3-.16,.82-.42,1.13-.52h0Zm15.77-4.61c1.56-.22,6.1-.69,7.45,.31,.58,.43,.78,1.3,.24,1.95-1.21,1.47-4.86-.35-6.12-1.12-.21-.13-1.46-.93-1.58-1.14h0Zm-9.58,.4c.15-.43,.44-.96,.64-1.4l1.74-4.36,.77,1.12c.29,.37,.52,.72,.81,1.08,.41,.51,.83,1.07,1.29,1.52,.13,.13,.34,.35,.43,.49-.19,.14-2.43,.64-2.88,.76-.48,.12-.95,.25-1.41,.38-.46,.13-.93,.3-1.38,.41h0Zm.91-12.2c-.86-1.74-2.1-8.34,.06-8.48,2.47-.16,.33,7.77-.06,8.48h0Zm-.24-10.32c-1.38,.22-2.19,1.17-2.56,2.43-.78,2.7,.3,6.73,1.35,9.28,.12,.28,.35,.61,.26,.91-.71,2.32-2.61,6.75-3.58,8.8l-1.24,2.45c-.24,.48-.12,.39-.65,.61-2.97,1.21-7.41,3.45-8.96,5.89-.83,1.3-.64,2.68,.22,3.7,.24,.29,1.04,.73,1.59,.89,2.09,.59,3.97-.57,5.39-1.76,2.01-1.68,4.06-4.73,5.42-6.95,.64-1.05,.25-.81,1.36-1.17,2.56-.83,5.1-1.49,7.85-2.05,.57-.12,.61,.18,1.5,.86,1.39,1.06,3.12,2.03,4.86,2.57,1.71,.53,4.57,1,6.22-.12,.56-.38,.74-.67,1.06-1.42,.63-1.49-.32-2.84-1.17-3.41-2.68-1.78-7.51-1.44-10.68-1.02-.73,.1-.53,.18-1.5-.88l-1.16-1.32c-.17-.2-.37-.47-.53-.69l-2-2.95c-.21-.33-.41-.56-.34-.8,.87-2.95,1.49-5.09,1.61-8.31,.05-1.44-.29-3.01-.98-3.99-.37-.53-.65-.86-1.28-1.19-.54-.29-1.35-.46-2.04-.36Z" fill="#e3000f" fill-rule="evenodd"/>
            </g>
        </g>
    </g>
</svg>