<?xml version="1.0" encoding="UTF-8"?>
<svg id="Layer_2"
    xmlns="http://www.w3.org/2000/svg" width="115.56" height="103.73" viewBox="0 0 115.56 103.73">
    <g id="Layer_1-2">
        <g>
            <path d="M94.6,58c.16-5.77-3.67-12.54-9.11-14.74-2.2-.89-4.64-1.03-7.37-.27-1.41-3.1-3.56-5.36-6.57-6.63-6.2-2.64-13.12-1.05-17.26,4.35-1.85,2.41-3.19,5.7-3.61,9.51,15.67,8.59,43.91,7.78,43.91,7.78Z" fill="#1dbcec" fill-rule="evenodd"/>
            <path d="M107.12,61.57c-.7,4.07-1.27,8.4-2.15,12.57-1.83,8.76-4.68,15.99-10.82,19.89l6.68,9.69h-4.6l-5.53-8c-2.51,.93-5.45,1.43-8.91,1.43h-24.63v-7.28l22.67,.06c8.96,.02,15.32-4.39,17.05-16.54l1.66-11.67c-14.18,.17-28.63-.32-41.39-4.78v-7.5c3.61,1.37,7.41,2.64,11.63,3.65,8.65,2.07,16.59,1.81,30.22,1.81h16.56v6.5c-2.78,.03-5.6,.1-8.45,.16Zm-49.96,35.59H31.98c-2.44,0-4.58-.39-6.46-1.1l-5.3,7.67h-4.6l6.51-9.45c-7.06-4.93-9.35-15.29-10.61-23.89l-3.52-23.93c-2.62,.04-5.28,.08-8,.11v-7.39H18.12c16.83,0,26.84,5.66,39.04,10.28v7.5c-2.15-.75-4.26-1.62-6.31-2.61-11.95-6.48-23.18-7.77-35.08-7.91l3.88,24.81c1.26,8.04,6.09,18.2,16.1,18.58l21.41,.06v7.28Z" fill="#5b217b" fill-rule="evenodd"/>
            <path d="M40.04,23.65c6.51,0,11.83-5.31,11.83-11.83S46.55,0,40.04,0s-11.83,5.31-11.83,11.83,5.31,11.83,11.83,11.83Z" fill="#1dbcec" fill-rule="evenodd"/>
            <path d="M72.65,29.86c3.91,0,7.11-3.19,7.11-7.11s-3.19-7.11-7.11-7.11-7.11,3.19-7.11,7.11,3.19,7.11,7.11,7.11Z" fill="#1dbcec" fill-rule="evenodd"/>
        </g>
    </g>
</svg>