<?xml version="1.0" encoding="UTF-8"?>
<svg id="Layer_2"
  xmlns="http://www.w3.org/2000/svg" width="116.96" height="116.96" viewBox="0 0 116.96 116.96">
  <g id="Layer_1-2">
    <g>
      <circle cx="58.48" cy="58.48" r="58.48" fill="#1dbcec"/>
      <path d="M44.08,71.04c-2.09-5.08-8.28-14.7-12.81-17.13-7.19-3.87-17.28,4.6-11.81,13.03,5.26,8.1,6.6,9.35,12.72,17.28,19.54,25.31,20.41-2.32,24.79-14.2,3.18-8.62,8.45-19.9,14.05-26.91,4.94-6.19,9.18-12.26,17.25-16.41,5.83-3,9.66-3.37,10.78-4.04-7.69-.94-15.5,.84-21.44,3.93-4.8,2.49-11.47,7.85-14.43,11.52-3.79,4.7-7.25,8.79-10.82,15.13-1.51,2.69-2.92,5.62-4.32,8.65l-3.77,8.9c-.03-.06-.12,.18-.19,.26Z" fill="#fff" fill-rule="evenodd"/>
    </g>
  </g>
</svg>