<?xml version="1.0" encoding="UTF-8"?>
<svg id="Layer_2"
  xmlns="http://www.w3.org/2000/svg" width="102.09" height="109.25" viewBox="0 0 102.09 109.25">
  <g id="Layer_1-2">
    <g>
      <path d="M25.07,57.03h51.96c.41,0,.75,.41,.75,.9v34.75c0,.5-.34,.9-.75,.9H25.07c-.41,0-.75-.41-.75-.9V57.94c0-.5,.34-.9,.75-.9h0Zm2.37,3.97v28.62h47.21v-28.62H27.44Z" fill="#5b217b" fill-rule="evenodd"/>
      <path d="M36.99,64.87h28.12c0,2.34,1.58,4.26,3.52,4.26v12.35c-1.94,0-3.52,1.92-3.52,4.26h-28.12c0-2.34-1.58-4.26-3.52-4.26v-12.35c1.94,0,3.52-1.92,3.52-4.26Z" fill="#1dbcec" fill-rule="evenodd"/>
      <path d="M31.63,0c3.58,0,6.49,2.9,6.49,6.49,0-3.58,2.9-6.49,6.49-6.49s6.49,2.9,6.49,6.49c0-3.58,2.9-6.49,6.49-6.49s6.49,2.9,6.49,6.49c0-3.58,2.9-6.49,6.49-6.49s6.49,2.9,6.49,6.49c0,.09,0,.19,0,.28h.03l-.03,.03c-.04,.81-.26,2.57-1.57,3.86l-12.08,11.91-24.64-.08-12.06-11.99c-1.2-1.53-1.5-2.86-1.51-3.74,0-.09,0-.18,0-.28,0-3.58,2.9-6.49,6.49-6.49h0Zm.66,10.35l8.5,9.39h19.63l9.35-9.39H32.29Zm5.82-3.86c0,.09,0,.18,0,.27h.01c0-.09,0-.18,0-.27h0Zm25.94,0c0,.09,0,.18,0,.27h.01c0-.09,0-.18,0-.27h0Zm-12.98,.27h.01c0-.09,0-.18,0-.27,0,.09,0,.18,0,.27Z" fill="#5b217b" fill-rule="evenodd"/>
      <path d="M38.41,28.6L8.07,59.79c-18.93,21.42-1.42,49.46,20.2,49.46h45.55c21.62,0,39.13-28.03,20.2-49.46l-30.34-31.19h-25.27Zm1.83,5.85h21.61l25.93,26.66c16.18,18.32,1.22,42.28-17.27,42.28H31.58c-18.48,0-33.45-23.97-17.27-42.28l25.93-26.66Z" fill="#5b217b" fill-rule="evenodd"/>
      <rect x="35.29" y="22.49" width="31.35" height="6.11" rx="3.05" ry="3.05" fill="#1dbcec"/>
    </g>
  </g>
</svg>