<?xml version="1.0" encoding="UTF-8"?>
<svg id="Layer_2"
  xmlns="http://www.w3.org/2000/svg" width="111.19" height="111.19" viewBox="0 0 111.19 111.19">
  <g id="Layer_1-2">
    <g>
      <path d="M55.6,0c30.71,0,55.6,24.89,55.6,55.6s-24.89,55.6-55.6,55.6v-5.38c27.73,0,50.21-22.48,50.21-50.21S83.33,5.38,55.6,5.38V0Zm0,111.19C24.89,111.19,0,86.3,0,55.6S24.89,0,55.6,0V5.38C27.86,5.38,5.38,27.86,5.38,55.6s22.48,50.21,50.21,50.21v5.38Z" fill="#1dbcec" fill-rule="evenodd"/>
      <path d="M79.42,29.27c7.17,6.5,11.68,15.89,11.68,26.33s-4.51,19.83-11.68,26.33v-6.13c.21,.08,.42,.16,.63,.25,4.47-5.34,7.23-12.18,7.41-19.65h-8.04v-2.88h7.98c-.43-6.62-2.88-12.69-6.73-17.59-.41,.17-.82,.34-1.25,.5v-7.15Zm-8.24-5.58c3.01,1.47,5.78,3.36,8.24,5.58v7.15c-2.39,.91-5.09,1.65-7.98,2.2,1.24,4.47,2,9.52,2.16,14.89h5.82v2.88h-5.79c-.07,6.22-.95,12.05-2.45,17.09V35.32c2.81-.58,5.24-1.3,7.09-2.13-2.09-2.12-4.47-3.94-7.09-5.41v-4.1h0Zm8.24,58.24c-2.46,2.23-5.23,4.11-8.24,5.58v-4.11c2.31-1.3,4.45-2.88,6.36-4.69-1.74-.7-3.9-1.32-6.36-1.82v-3.35c2.99,.56,5.77,1.31,8.24,2.25v6.13Zm-13.38-60.27c1.78,.55,3.49,1.23,5.14,2.03v4.1c-1.63-.91-3.35-1.69-5.14-2.31v-3.83h0Zm5.14,65.85c-1.64,.8-3.36,1.49-5.14,2.03v-3.83c1.79-.62,3.51-1.4,5.14-2.31v4.11h0Zm0-52.18c-.24,.05-.48,.1-.73,.14-1.2-3.42-2.69-6.41-4.41-8.81v5.65c.58,1.12,1.11,2.34,1.6,3.64-.53,.08-1.06,.15-1.6,.21v3.28c.89-.1,1.78-.21,2.65-.34,1.24,4.26,2.02,9.17,2.18,14.42h-4.83v2.88h4.86c-.07,6.16-.98,11.88-2.5,16.69-.78-.11-1.56-.21-2.35-.3v3.28c.41,.05,.82,.1,1.22,.16-.38,.94-.79,1.83-1.22,2.67v5.65c1.56-2.18,2.93-4.84,4.06-7.86,.36,.07,.72,.14,1.07,.21v-3.35h-.02s.02-.06,.02-.06V35.32Zm-15.58-15.23c3.64,0,7.15,.55,10.45,1.56v3.83c-.4-.14-.81-.27-1.22-.4,.42,.49,.83,1.02,1.22,1.57v5.65c-2.74-5.32-6.41-8.58-10.45-8.58h0v-3.63h0Zm10.45,69.45c-3.3,1.02-6.81,1.56-10.45,1.56h0v-3.63h0c4.04,0,7.71-3.26,10.45-8.58v5.65c-.4,.56-.8,1.08-1.22,1.57,.41-.12,.82-.26,1.22-.4v3.83h0Zm0-53.39v3.28c-3.39,.38-6.92,.55-10.45,.51v-3.21h.66c3.4,0,6.72-.21,9.79-.58h0Zm0,17.36v2.88h-10.45v-2.88h10.45Zm0,19.27v3.28c-3.06-.37-6.38-.58-9.79-.58h-.66s0-3.21,0-3.21c3.53-.04,7.06,.13,10.45,.51Zm-10.45,18.32c-3.63,0-7.13-.55-10.42-1.56v-3.82c.4,.14,.8,.27,1.2,.39-.41-.48-.81-.99-1.2-1.54v-5.63c2.73,5.29,6.4,8.53,10.42,8.53v3.63h0ZM45.17,21.65c3.3-1.01,6.8-1.56,10.42-1.56v3.63c-4.03,0-7.69,3.24-10.42,8.53v-5.63c.39-.54,.79-1.05,1.2-1.54-.4,.12-.8,.25-1.2,.39v-3.82h0Zm10.42,15.08v3.21c-3.53-.04-7.06-.28-10.42-.73v-3.17c3.15,.42,6.67,.66,10.42,.69h0Zm0,16.78v2.88h-10.42v-2.88h10.42Zm0,18.76v3.21c-3.75,.03-7.28,.27-10.42,.69v-3.17c3.36-.45,6.89-.69,10.42-.73Zm-10.42,17.27c-1.7-.52-3.34-1.16-4.92-1.92v-4.09c1.56,.86,3.21,1.59,4.92,2.18v3.82h0Zm-4.92-65.98c1.58-.76,3.22-1.4,4.92-1.92v3.82c-1.71,.59-3.35,1.32-4.92,2.18v-4.09h0Zm4.92,3.05c-1.7,2.37-3.18,5.3-4.37,8.66-.18-.04-.37-.08-.55-.12v41.89c.29-.07,.59-.13,.89-.2,1.13,2.96,2.49,5.57,4.02,7.72v-5.63c-.42-.82-.82-1.68-1.2-2.59,.39-.06,.79-.12,1.2-.17v-3.17c-.77,.1-1.54,.22-2.3,.34-1.57-4.87-2.51-10.68-2.59-16.95h4.88v-2.88h-4.86c.17-5.37,.97-10.37,2.26-14.69,.85,.14,1.72,.27,2.6,.39v-3.17c-.54-.07-1.06-.15-1.58-.23,.48-1.27,1.01-2.46,1.58-3.56v-5.63Zm-4.92,61.01c-3.09-1.48-5.93-3.4-8.44-5.67v-5.69c2.45-.99,5.27-1.79,8.31-2.42-1.56-5.12-2.49-11.08-2.56-17.46h-5.75v-2.88h5.77c.16-5.5,.96-10.66,2.25-15.21-2.93-.62-5.65-1.41-8.02-2.36v-6.71c2.51-2.27,5.35-4.18,8.44-5.67v4.09c-2.49,1.37-4.77,3.06-6.79,5.01,1.62,.99,3.95,1.84,6.79,2.49v41.89c-2.47,.57-4.55,1.28-6.11,2.11,1.85,1.69,3.9,3.16,6.11,4.37v4.09Zm-8.44-5.67c-7.2-6.5-11.73-15.9-11.73-26.37s4.53-19.87,11.73-26.37v6.71c-.33-.13-.66-.27-.98-.41-4.04,4.97-6.6,11.19-7.04,17.98h8.02v2.88h-8.08c.19,7.65,3.07,14.62,7.73,20.02,.12-.05,.23-.1,.35-.14v5.69Z" fill="#5b217b" fill-rule="evenodd"/>
    </g>
  </g>
</svg>