<?xml version="1.0" encoding="UTF-8"?>
<svg id="Layer_2"
  xmlns="http://www.w3.org/2000/svg" width="108.63" height="81.53" viewBox="0 0 108.63 81.53">
  <g id="Layer_1-2">
    <g>
      <path d="M8.93,3.3h14.18c1.25,0,2.27,1.02,2.27,2.27v7.57h-2.65V7.9c0-1-.82-1.83-1.83-1.83H11.13c-1,0-1.83,.82-1.83,1.83v5.24h-2.65V5.57c0-1.25,1.02-2.27,2.27-2.27Z" fill="#1dbcec" fill-rule="evenodd"/>
      <path d="M53.23,25.14c12.62,0,22.86,10.23,22.86,22.86s-10.23,22.85-22.86,22.85-22.85-10.23-22.85-22.85c0-3.92,.99-7.62,2.73-10.84,.09,5.56,4.63,10.05,10.21,10.05s10.22-4.57,10.22-10.22c0-5.22-3.92-9.53-8.98-10.14,2.67-1.1,5.6-1.71,8.67-1.71Z" fill="#1dbcec" fill-rule="evenodd"/>
      <path d="M54,14.47c11.45,.26,21.48,6.25,27.33,15.23h22.65v-5.06c0-3.94-.84-4.82-5.25-4.82h-15.25c-8.31,0-11.22-2.76-11.22-10.66,0-3.69-.87-5.14-5.82-5.14h-12.44V0h15.65c4.24,0,7.3,1.76,7.3,7.96,0,4.16,1.31,7.3,6.8,7.3h19.82c1.72,0,5.06,1.28,5.06,4.77v48.1c0,2.32-2.27,4.01-5.64,4.12h-20.61v-4.61s16.84,0,16.84,0c4.21,0,4.77-1.45,4.77-6.76v-27.82h-20.73c2.24,4.5,3.51,9.57,3.51,14.94,0,18.26-14.6,33.11-32.76,33.52v-5.36c15.21-.41,27.41-12.86,27.41-28.16s-12.2-27.76-27.41-28.17v-5.36Zm-.77,0c.26,0,.51,0,.77,0v5.36c-.26,0-.51-.01-.77-.01-15.56,0-28.18,12.61-28.18,28.18s12.62,28.18,28.18,28.18c.26,0,.51,0,.77-.01v5.36c-.26,0-.51,0-.77,0-18.52,0-33.53-15.01-33.53-33.53,0-5.37,1.26-10.44,3.51-14.94H4.02v28.6c0,4.43,.6,5.98,4.17,5.98h13.08v4.61H5.64c-3.37-.12-5.64-1.8-5.64-4.12V20.03c0-3.49,3.35-4.77,5.06-4.77H24.88c5.49,0,6.8-3.15,6.8-7.3,0-6.2,3.06-7.96,7.3-7.96h15.02V4.02h-12.56c-4.66,0-5.65,0-5.65,3.49v5.11c-.33,4.59-4.17,7.47-11.54,7.47H10.47c-6.33,0-6.45,.6-6.45,5.74v3.86H25.13c5.98-9.17,16.33-15.24,28.1-15.24Z" fill="#5b217b" fill-rule="evenodd"/>
    </g>
  </g>
</svg>