<?xml version="1.0" encoding="UTF-8"?>
<svg id="Layer_2"
    xmlns="http://www.w3.org/2000/svg" width="116.9" height="88.65" viewBox="0 0 116.9 88.65">
    <g id="Layer_1-2">
        <g>
            <path d="M58.45,45.33h54.8c2.01,0,3.65,1.64,3.65,3.65v17.51c0,2.01-1.64,3.65-3.65,3.65h-.2v18.51h-5.95v-18.51H58.45v-5.05h50.65c1.33,0,2.42-1.09,2.42-2.42v-9.61c0-1.33-1.09-2.42-2.42-2.42H58.45v-5.31Zm-54.8,0H58.45v5.31H7.8c-1.33,0-2.42,1.09-2.42,2.42v9.61c0,1.33,1.09,2.42,2.42,2.42H58.45v5.05H9.52v18.51H3.56v-18.51h.09c-2.01,0-3.65-1.64-3.65-3.65v-17.51c0-2.01,1.64-3.65,3.65-3.65Z" fill="#5b217b" fill-rule="evenodd"/>
            <path d="M12.65,0H103.96c5,0,9.09,4.09,9.09,9.09v29.33h-5.95V10.5c0-2.72-2.23-4.95-4.95-4.95H14.47c-2.72,0-4.95,2.23-4.95,4.95v27.92H3.56V9.09C3.56,4.09,7.65,0,12.65,0Z" fill="#5b217b" fill-rule="evenodd"/>
            <path d="M21.9,26.69h24.2c2.95,0,5.37,2.41,5.37,5.37v11.28c0,2.95-2.41,5.36-5.37,5.36H21.9c-2.95,0-5.37-2.41-5.37-5.36v-11.28c0-2.95,2.41-5.37,5.37-5.37h0Zm4.53,5.9c-1.39,0-2.53,1.14-2.53,2.53v5.15c0,1.39,1.14,2.53,2.53,2.53h15.14c1.39,0,2.53-1.14,2.53-2.53v-5.15c0-1.39-1.14-2.53-2.53-2.53h-15.14Z" fill="#1dbcec" fill-rule="evenodd"/>
            <path d="M69.96,26.69h24.2c2.95,0,5.37,2.41,5.37,5.37v11.28c0,2.95-2.41,5.36-5.37,5.36h-24.2c-2.95,0-5.37-2.41-5.37-5.36v-11.28c0-2.95,2.41-5.37,5.37-5.37h0Zm4.53,5.9c-1.39,0-2.53,1.14-2.53,2.53v5.15c0,1.39,1.14,2.53,2.53,2.53h15.14c1.39,0,2.53-1.14,2.53-2.53v-5.15c0-1.39-1.14-2.53-2.53-2.53h-15.14Z" fill="#1dbcec" fill-rule="evenodd"/>
        </g>
    </g>
</svg>