<?xml version="1.0" encoding="UTF-8"?>
<svg id="Layer_2"
  xmlns="http://www.w3.org/2000/svg" width="79.14" height="107.78" viewBox="0 0 79.14 107.78">
  <g id="Layer_1-2">
    <g>
      <path d="M39.54,107.78h27.55c12.83,0,11.99-8.54,11.99-17.1V26.29c-27.45,0-24.41,2.68-24.41-26.05h-15.12V4.72h10.56c0,26.34-.09,26.15,23.73,26.15v56.77c0,7.85,.73,15.68-10.4,15.68h-23.89v4.47Zm-26.53,0h26.53v-4.47H16.53c-9.55,0-10.56-6.98-10.63-14.58L5.24,15.58c0-5.97,4.63-10.86,10.28-10.86h24.03V.24H11.85C5.33,.24,0,5.57,0,12.09L.75,91.88c.08,8.28,1.24,15.9,12.26,15.9Z" fill="#5b217b" fill-rule="evenodd"/>
      <path d="M60.56,0V19.91h18.57L60.56,0Z" fill="#1dbcec" fill-rule="evenodd"/>
      <path d="M25.53,68.26c-1.69,2.81-2.46,3.81-4.37,6.11-.58,.7-4.4,5.18-6.37,3.42-1.2-1.07,.48-2.95,1-3.52,.42-.46,.89-.82,1.4-1.24,2.23-1.81,4.11-2.66,6.58-3.97,.46-.24,1.28-.66,1.76-.81h0Zm24.48-7.15c2.42-.35,9.47-1.08,11.57,.49,.9,.67,1.21,2.01,.38,3.02-1.87,2.29-7.54-.55-9.49-1.74-.32-.2-2.27-1.45-2.45-1.76h0Zm-14.88,.63c.23-.66,.68-1.49,.99-2.17l2.7-6.77,1.19,1.73c.44,.58,.81,1.12,1.26,1.68,.63,.79,1.29,1.66,2,2.37,.21,.2,.53,.54,.66,.76-.3,.22-3.77,1-4.46,1.18-.74,.19-1.47,.38-2.2,.59-.72,.2-1.45,.47-2.14,.64h0Zm1.41-18.93c-1.33-2.7-3.26-12.95,.1-13.16,3.84-.24,.52,12.07-.1,13.16h0Zm-.38-16.02c-2.14,.34-3.4,1.82-3.97,3.78-1.21,4.19,.46,10.45,2.09,14.4,.18,.44,.54,.94,.4,1.42-1.1,3.6-4.05,10.49-5.56,13.66l-1.92,3.8c-.37,.75-.19,.61-1.01,.95-4.61,1.88-11.5,5.35-13.92,9.14-1.29,2.02-.99,4.16,.33,5.74,.37,.45,1.61,1.14,2.47,1.38,3.24,.91,6.16-.89,8.36-2.74,3.12-2.62,6.31-7.35,8.41-10.8,1-1.64,.4-1.26,2.11-1.81,3.97-1.29,7.92-2.31,12.19-3.19,.89-.18,.95,.28,2.33,1.33,2.16,1.64,4.84,3.16,7.54,3.99,2.66,.82,7.1,1.56,9.65-.19,.86-.59,1.16-1.05,1.64-2.2,.97-2.31-.5-4.42-1.81-5.29-4.17-2.77-11.66-2.23-16.58-1.58-1.14,.15-.82,.28-2.32-1.37l-1.8-2.04c-.27-.31-.58-.73-.82-1.07l-3.11-4.58c-.33-.52-.64-.87-.53-1.25,1.35-4.58,2.32-7.9,2.5-12.9,.08-2.24-.45-4.67-1.52-6.19-.58-.82-1.01-1.33-1.99-1.85-.83-.44-2.09-.72-3.17-.55Z" fill="#e3000f" fill-rule="evenodd"/>
    </g>
  </g>
</svg>