<?xml version="1.0" encoding="UTF-8"?>
<svg id="Layer_2"
    xmlns="http://www.w3.org/2000/svg" width="118.8" height="82.23" viewBox="0 0 118.8 82.23">
    <g id="Layer_1-2">
        <g>
            <path d="M0,31.42l1.32,23.35c0,5.8,7.18,11.67,13.84,11.67H103.65c6.66,0,13.84-5.88,13.84-11.67l1.32-23.35c0-6.91-13.12-10.46-15.34-2.17l-4.14,18.36c-.86,3.21-2.6,5.55-8.1,5.55H27.58c-5.5,0-7.24-2.34-8.1-5.55l-4.14-18.36C13.12,20.96,0,24.51,0,31.42Z" fill="#1dbcec" fill-rule="evenodd"/>
            <path d="M59.57,53.16h30.02c5.72,.43,8.91-1.47,9.73-5.55l4.57-19.55,4.09-10.01c3.02-9.43-4.07-18.05-13.82-18.05H59.57V5.55h29.43c8.3,0,14.33,5.75,11.76,13.78l-3.48,8.52-3.89,15.38c-.69,3.47-3.41,5.09-8.28,4.73h-25.55v5.21ZM59.57,0H24.99C15.24,0,8.15,8.62,11.17,18.05l3.8,10.14,3.42,14.69c1.81,9.88,3.43,11.03,14.27,10.29h26.91v-5.21h-22.9c-9.23,.63-10.61-.35-12.14-8.76l-2.91-11.24-3.24-8.63c-2.57-8.02,3.46-13.78,11.76-13.78h29.43V0Z" fill="#5b217b" fill-rule="evenodd"/>
            <g>
                <polygon points="17.44 82.23 26.9 82.23 31.14 66.44 21.3 66.44 17.44 82.23" fill="#5b217b" fill-rule="evenodd"/>
                <polygon points="101.36 82.23 91.9 82.23 87.66 66.44 97.5 66.44 101.36 82.23" fill="#5b217b" fill-rule="evenodd"/>
            </g>
        </g>
    </g>
</svg>