<?xml version="1.0" encoding="UTF-8"?>
<svg id="Layer_2"
  xmlns="http://www.w3.org/2000/svg" width="113.71" height="68.82" viewBox="0 0 113.71 68.82">
  <g id="Layer_1-2">
    <g>
      <g>
        <path d="M14.33,59.85c-1.23,0-1.12-.61-.72-1.76l2.2-7.09H53.95v-3.55l-40.72,.03c-1.7-.36-3.1-1.31-4-2.75-.63-1-.69-2.37-1.55-2.89-1.61-.96-3.61,.7-1.48,4.23,1.26,2.08,3.82,4.45,6.24,4.51-.07,.8-.32,1.21-.54,1.99-.25,.87-.37,1.28-.64,2.1-.59,1.77-1.13,2.76-1.13,4.77,0,3.46,5.62,5.91,7.87,1.13,.74-1.58,1.46-4.29,2.24-4.29H53.95v-3.16H18.55c-.98,0-1.23,.44-1.55,1.19l-1.93,4.81c-.23,.48-.12,.74-.74,.74h0Zm4.64-25.71c0-1.07,.52-1.88,1.26-2.32,1.7-1.03,7.35-1.47,9.49-1.47,2.01,0,7.51,.51,9.14,1.39,1.73,.93,1.39,2.64,1.39,4.51-3.35,0-16.89,.36-19.16-.44-.56-.2-2.13-.95-2.13-1.67h0ZM26.13,3.16h27.82V0H24.66c-3.32,0-6.5,1.44-8.56,2.82-3.34,2.24-6.16,5.89-7.08,9.99-.51,2.24-.13,1.59-.84,1.59-1.89,0-4.33-.44-6.43,2.09-.71,.86-1.74,2.48-1.74,3.95,0,2.97,.19,2.64,.93,5.61l2.11,8.64c.55,2.21,.51,3.67,2.23,3.67,2.16,0,1.58-1.94,1.22-3.33l-2.78-11.34c-.39-1.7-1.1-3.3,.44-4.99,.41-.45,1.68-1.2,2.38-1.2,3.35,0,3.72,2.35,4.5,4.98,.76,2.56,1.39,4.79,2.12,7.36,.76,2.67,1.35,4.74,3.01,6.47,1.33,1.39,3.79,3.1,6.38,3.1h31.4v-3.16h-10.32c0-1.83-.22-2.98,1.1-4.17,1.1-1,1.64-.35,1.64-2.36,0-1.43-2.57-2.04-4.21,.42-2.5-1.67-1.63-1.66-5.6-2.41l-7.25-.76-3.72,.3c-1.83,.27-5.02,.7-6.55,1.46-.38,.19-.86,.5-1.15,.74-.58,.48-.46,.67-1.23,.88-.13-1.59-3.3-12.01-4.13-13.15-.71-.99-.82-.73-.58-2.08,.17-.97,.28-1.58,.54-2.43,.84-2.71,2.73-5.14,4.86-6.73,2.2-1.64,5.04-2.8,8.79-2.8h0Zm27.82,23.86v3.34c-1.56,.07-3.14,.28-3.72-.08-.8-.49-1.1-1.46-.54-2.29,.63-.96,1.36-.77,2.8-.8,.65-.01,1.04-.11,1.47-.16Z" fill="#5b217b" fill-rule="evenodd"/>
        <path d="M28.03,11.59v.84c-2.94,0-2.84,3.31,0,3.37,0,2.94,3.16,2.63,3.16,0,2.96-.25,2.86-3.37,0-3.37,0-3.31-3.16-2.04-3.16-.84Z" fill="#5b217b" fill-rule="evenodd"/>
        <path d="M44.26,11.59v.84c-3.01,0-2.75,3.31,0,3.37,0,1.06,.32,1.98,1.48,2.02,1.11,.04,1.68-.67,1.68-2.02,2.96-.25,2.86-3.37,0-3.37,0-3.31-3.16-2.04-3.16-.84Z" fill="#5b217b" fill-rule="evenodd"/>
      </g>
      <path d="M55.25,51.12l38.62,5.35,.9,5.49,3.34-.17c-.36-2.06-.89-4.32-.84-5.28,2.45,.28,5.16-1.71,6.6-3.38,1.53-1.77,2.45-5.01,3.46-7.52,1.02-2.52,2.24-5.32,3.16-7.92,1.76-4.96,5.51-10.15,1.26-14.37-2.16-2.14-3.26-1.76-5.42-2.1-.9-.14-.15-2.72-1.52-5.91-.73-1.7-1.6-3.29-2.72-4.67-1.26-1.54-2.53-2.51-4.13-3.6-1.36-.93-3.66-1.99-5.85-2.3L62.25,.61l-.43,3.13,28.39,3.93c7.61,1.05,12.12,6.82,12.4,13.23,.06,1.3,.29,1.41-.51,2.22-1.16,1.18-1.5,1.98-2.25,3.71-.59,1.36-1.23,2.7-1.88,4.18l-1.8,4.29c-.82-.35-2.15-2.36-8.43-3.71l-3.71-.75-6.85-.15c-1.19,.06-2.04,.08-3.1,.35-1.09,.27-1.71,.83-2.6,1.26-.74-1.53-2.43-2.26-4.29-2.92-2.69-.96-4.13-1.01-6.23-1.64-1.19-.36-1.62-.23-2.43-.25l-.45,3.24c.56,.04,1.13,.09,1.68,.16,2.24,.31,4.36,.93,6.29,1.6,3.59,1.24,3.61,2.18,3.13,5.67l-11.9-1.65-.43,3.13,31.94,4.43c2.53,.35,5.13-.96,6.63-2.11,1.98-1.53,2.76-3.32,3.92-5.93,.61-1.37,4.05-9.41,4.75-10.27,1.3-1.59,4.15-1.82,5.68,.19,1.56,2.05,.25,4.11-.61,6.26-1.01,2.5-6.61,17.13-7.52,18.47-1.06,1.55-2.57,2.38-4.38,2.62-1.43,.19-.79-.08-2.05-.26l-39.46-5.44-.49,3.52h0Zm40.74,17.69h-2.13c-4.9-.68-3.42-7.49-5.1-7.73l-34.24-4.74,.43-3.13,35.9,4.98c.97,.13,1.16,.61,1.37,1.39l1.29,5.19,2.47,4.04h0Zm-8.24-28.08l-15.24-2.11c.46-3.28,.28-4.49,4.71-4.64,4.47-.15,11.66,.53,15.35,2.73,1.03,.62,1.02,1.07,1.4,2.12-1.33,1.49-3.48,2.28-6.22,1.9Z" fill="#5b217b" fill-rule="evenodd"/>
      <path d="M64.48,13.08c-2.85-.22-3.19,2.89-.26,3.36-.1,1.26,.2,1.95,1.37,2.13,1.21,.19,1.69-.77,1.78-1.88,2.75,.15,3.26-3.13,.26-3.36,.07-.94,.02-2.11-1.31-2.21-1.28-.1-1.74,.66-1.84,1.97Z" fill="#5b217b" fill-rule="evenodd"/>
      <path d="M80.66,14.33c-2.85-.22-3.19,2.89-.26,3.36-.21,2.71,2.94,3.01,3.15,.24,2.75,.15,3.26-3.13,.26-3.36,.07-.94,.01-2.11-1.31-2.22-1.28-.1-1.74,.66-1.84,1.97Z" fill="#5b217b" fill-rule="evenodd"/>
      <polygon points="44 .11 39.71 13.45 44.07 10.44 41.89 21.47 46.56 17.71 43.14 31.5 51.73 15.81 46.56 13.37 50.18 4.14 48.05 .11 44 .11" fill="#1dbcec" fill-rule="evenodd"/>
    </g>
  </g>
</svg>