<?xml version="1.0" encoding="UTF-8"?>
<svg id="Layer_2"
  xmlns="http://www.w3.org/2000/svg" width="111.19" height="111.19" viewBox="0 0 111.19 111.19">
  <g id="Layer_1-2">
    <g>
      <path d="M55.6,0c30.71,0,55.6,24.89,55.6,55.6s-24.89,55.6-55.6,55.6v-5.38c27.73,0,50.21-22.48,50.21-50.21S83.33,5.38,55.6,5.38V0Zm0,111.19C24.89,111.19,0,86.3,0,55.6S24.89,0,55.6,0V5.38C27.86,5.38,5.38,27.86,5.38,55.6s22.48,50.21,50.21,50.21v5.38Z" fill="#1dbcec" fill-rule="evenodd"/>
      <g>
        <path d="M55.86,51.47c6.15,0,11.16-5.01,11.16-11.16s-5.01-11.16-11.16-11.16-11.16,5.01-11.16,11.16,5.01,11.16,11.16,11.16Z" fill="#1dbcec" fill-rule="evenodd"/>
        <path d="M55.6,96.23c7.63-12.71,27.51-42.57,27.51-54.12,0-14.99-12.32-27.14-27.51-27.14s-27.51,12.15-27.51,27.14c0,11.55,18.89,39.76,27.51,54.12h0Zm0-8.38l-9-15.85c-4.49-8.11-13.04-19.7-13.04-28.83,0-12.69,9.56-22.97,22.04-22.97s22.04,10.28,22.04,22.97c0,8.51-8.86,21.65-13.04,28.83l-9,15.85Z" fill="#5b217b" fill-rule="evenodd"/>
      </g>
    </g>
  </g>
</svg>