<?xml version="1.0" encoding="UTF-8"?>
<svg id="Layer_2"
  xmlns="http://www.w3.org/2000/svg" width="111.74" height="113.54" viewBox="0 0 111.74 113.54">
  <g id="Layer_1-2">
    <g>
      <path d="M6.13,108.28c1.61-6.44,5.51-13.76,7.46-20.21,1.49-4.92-3.89-8.01-6.81-19.5C-4.58,23.8,44.54-10.97,82.88,12.95c7.5,4.68,15,12.61,18.98,21.51,6.33,14.11,6.38,30.59-.71,44.38-10,19.44-31.56,30.84-53.67,27.06-13.74-2.35-14.03-7.24-21.11-4.62l-20.23,7h0ZM52.19,.16C18.16,2.7-5.44,33.71,1.09,67c.95,4.86,3.41,12.04,5.98,16.21,1.71,2.77,2.15,2,.74,5.5-5.84,14.49-14.01,29.53,3.39,23.44l16.4-5.79c4.92-1.76,4.97,1.96,17.22,4.35,35.37,6.93,65.15-19.76,66.84-51.21C113.46,25.99,85.87-2.36,52.19,.16Z" fill="#5b217b" fill-rule="evenodd"/>
      <path d="M69.29,79.49c4.27,0,9.56,.26,13.7-.01,3.97-.26,6.43-3.41,6.17-7.73-.33-5.45-3.4-4.97-6.21-7.6-7.41-6.92-4.17-21.84-9.66-30.74-7.64-12.38-26.86-13.2-35,.3-4.06,6.73-3.02,13.83-5.12,21.99-3.48,13.53-10.48,7.83-10.6,16.53-.13,9.56,10.23,7.25,19.89,7.28,2.44,5.88,5.46,10.66,13.41,10.68,7.68,.02,11.26-4.7,13.42-10.68Z" fill="#34bde7" fill-rule="evenodd"/>
    </g>
  </g>
</svg>