<?xml version="1.0" encoding="UTF-8"?>
<svg id="Layer_2"
  xmlns="http://www.w3.org/2000/svg" width="91.55" height="91.58" viewBox="0 0 91.55 91.58">
  <g id="Layer_1-2">
    <g>
      <path d="M38.64,9.83c-5.57,0-8.19,.24-13.3,2.62-.48,.22-.63,.27-1.09,.52-1.44,.79-3.68,2.16-4.8,3.25-1.37,1.33-1.23,.9-2.43,2.4-.27,.34-.48,.5-.79,.82-2.24,2.3-4.8,7.5-5.54,10.56-1.68,6.99-1,12.18,1.62,18.67,.3,.75,.45,.99,.84,1.66,.36,.61,.55,1,.91,1.59l3.32,4.19c.88,.87,1.66,1.62,2.61,2.4,.84,.68,1.96,1.52,2.95,2.06,1.22,.66,2.07,1.21,3.44,1.75,5.56,2.2,11.24,2.93,17.15,1.43,5.36-1.36,9.18-3.52,12.94-7.27l3.45-4.07c2.17-3.07,4.37-8.97,4.47-13.06,.03-1.02,.22-1.3,.19-2.33-.21-7.48-3.08-14.2-8.29-19.45-.54-.55-.76-.69-1.33-1.17-1.75-1.48-4.03-3.18-6.16-4.04-3.01-1.21-6.15-2.53-10.17-2.53h0Zm35.6,25.04c0,4.06,.13,4.6-.56,8.74-.5,3.01-1.66,6.23-2.9,8.91-2.47,5.34-3.71,2.82,3.95,10.48,2.13,2.13,4.13,4.13,6.26,6.26,2.04,2.04,7.78,7.43,9.11,9.67,4.78,8-3.2,15.95-11.05,11.23-2.42-1.46-7.46-6.86-9.69-9.09l-10.91-10.91c-2.57-2.58-1.64-.91-10,2.26-8.39,3.18-19.72,2.17-27.52-1.76-3.6-1.82-6.14-3.49-9.07-6.31-.49-.48-.8-.57-1.26-1.06-.42-.45-.51-.7-.97-1.17-2.75-2.77-4.5-5.93-6.22-9.34C-1.76,42.55-.88,28.14,4.93,18.52c2.76-4.57,6.38-8.75,10.78-11.76,2.3-1.57,2.98-1.97,5.64-3.31,8.97-4.49,22.29-4.67,31.31-.12,2.94,1.48,2.75,1.29,5.59,3.17,.96,.63,1.69,1.24,2.55,1.92,.51,.41,.67,.52,1.14,1.01,.51,.52,.74,.62,1.25,1.07,.8,.7,3.37,3.95,4.03,4.74,3.76,4.53,7.02,13.58,7.02,19.64Z" fill="#5b217b" fill-rule="evenodd"/>
      <path d="M27.9,24.14c-4.17,0-5.51-4.26-2.82-6.76,1.97-1.84,7.9-2.54,11.23-2.54,2.98,0,6.68,1.04,8.77,1.97l3.5,1.87c.53,.35,1.05,.74,1.56,1.12,3.21,2.39,11.4,11.34,6.21,14.54-1.18,.73-2.75,.85-4.07,.13-2.42-1.33-1.68-4.85-7.38-8.89-1.9-1.34-4.82-2.68-7.87-2.86-6.29-.38-7.31,1.43-9.12,1.43Z" fill="#1dbcec" fill-rule="evenodd"/>
    </g>
  </g>
</svg>