<?xml version="1.0" encoding="UTF-8"?>
<svg id="Layer_2"
  xmlns="http://www.w3.org/2000/svg" width="113.71" height="106.99" viewBox="0 0 113.71 106.99">
  <g id="Layer_1-2">
    <g>
      <path d="M15.63,100.12c.08-11.57,.03-23.17,.03-34.74,0-3.34-.51-5.26,1.75-6.99,2.76-2.12,6-4.23,8.74-6.35l21.31-15.45c5.61-3.83,6.43-6.19,11.18-2.42,.42,.33,.78,.52,1.27,.87l12.46,9.03c.63,.46,.52,.5,1.16,.81,.56-2.1,.29-2.53,1.55-4.11,1.15-1.43,2.92-1.58,3.52-2.09-1.93-1.27-4.05-2.88-5.97-4.29l-14.9-10.86c-3.54-2.34-2.16-2.66-4.63-1.01-.56,.37-.85,.63-1.42,1.06-.47,.36-1.05,.69-1.57,1.11-2.5,2.04-9.76,7.17-13.11,9.61-.59,.43-1,.65-1.59,1.09-.52,.38-.91,.74-1.4,1.08L7.71,55.55l-.05,44.56-3.85,.04v6.83s101.86-.08,101.86-.08l-.07-6.79h-3.84s-.04-16.21-.04-16.21l-7.77,.77c-.48,1.71,.24,12.45-.16,15.44l-48.51-.04c.31-1.2,.09-20.55,.09-23.51s.17-5.24-1.26-7.81c-.47-.85-.62-.97-1.19-1.64-4.82-5.73-12.82-4.54-16.2-.13-2.21,2.88-2.65,4.74-2.65,9.23,0,7.85-.25,16.11,.02,23.9H15.63Z" fill="#5b217b" fill-rule="evenodd"/>
      <path d="M30.21,16.96c.07-7.23,.73-8-4.57-8-2.07,0-4.15,0-6.22,0-2.19,0-3.37,.56-3.4,2.78-.06,4.2,.07,8.41-.02,12.62-.05,2.31-.09,3.4-1.45,4.72l-8.84,6.96c-1.49,1.14-4.13,2.84-4.96,4.28-2.97,5.16,3.46,9.99,8.68,7.08,1.68-.94,5.37-3.92,7.19-5.24,2.54-1.83,6.6-5.27,8.91-6.89,.65-.46,.99-.72,1.74-1.28l10.65-8.17c.66-.42,1.2-.92,1.81-1.39l5.23-4.01c1.29-.93,2.31-1.81,3.61-2.79,2.9-2.18,5.54-5.2,7.92-3.68,1.76,1.12,5.13,4.14,6.98,5.44l10.57,8.08c3.59,2.99,8.83,6.54,12.44,9.59l12.36,9.48c3.07,2.15,7.4,1.93,9.31-.41,2.54-3.11,1.29-5.85-1.57-8.21-.63-.52-1.29-.89-1.86-1.34l-12.23-9.44c-1.15-.9-2.36-1.83-3.5-2.71L64.16,5.37c-3.89-2.88-7.85-7.28-12.61-4.47-2.02,1.19-10.19,7.88-13.26,10.18-1.64,1.23-6.83,5.31-8.07,5.89Z" fill="#5b217b" fill-rule="evenodd"/>
      <path d="M50.07,66.27c.37,3.52,.88,7.12,1.09,10.65,.12,1.99,.11,3.52,1.18,4.92,3.25,4.22,7.8,2.63,13.98,2.05l32.5-3.23c2.57-.25,8.58-.56,10.62-1.28,3.95-1.39,4.55-4.09,4.19-7.52-.38-3.6-.85-7.14-1.12-10.75-.14-1.92-.15-3.53-1.12-4.93-3.08-4.43-8.76-2.48-14-2.02-10.88,.96-21.64,2.22-32.51,3.18-5.88,.52-11.55-.15-14.07,3.9-.88,1.41-.94,3.18-.74,5.02Z" fill="#1dbcec" fill-rule="evenodd"/>
      <polygon points="45.66 56.75 53.12 56.68 53.08 43.44 52.28 43.42 46.42 43.42 45.66 43.41 45.66 56.75" fill="#5b217b" fill-rule="evenodd"/>
      <path d="M57.26,56.49l.24-.15,1.65-1.15c.68-.51,1.02-.71,1.65-1.19,1.11-.83,2.12-1.57,3.16-2.29,0-.32-.07-.24,.25-.18l.19-.13-.05-7.89h-7.27s0,12.46,0,12.46c.07,.63,.03,.27,.19,.52Z" fill="#5b217b" fill-rule="evenodd"/>
      <path d="M61.71,55.44c.83,.32,3.34-.19,4.45-.29,2.73-.25,2.01-.16,3.9-1.29,1.37-.82,5.01-3.77,6.1-4.22-.29-1.15-1.32-2.09-1.84-3.1l-6.41,4.45c-1.1,.81-2.04,1.51-3.11,2.22l-3.09,2.22Z" fill="#5b217b" fill-rule="evenodd"/>
      <path d="M84.11,48.65c2.25,1.05,4.67,1.97,6.86,3.07,2,1,1.72,.79,4.12,.58,1.54-.14,3.08-.23,4.62-.52l-14.41-6.43-1.19,3.3Z" fill="#5b217b" fill-rule="evenodd"/>
      <path d="M79.21,42.55c3.04-.65,3.7,3.99,.88,4.47-3,.51-3.85-3.83-.88-4.47h0Zm-3.76,3.12c.98,5.31,9.51,4.05,8.43-1.76-.4-2.14-2.42-3.79-5.08-3.33-2.12,.37-3.82,2.51-3.35,5.09Z" fill="#5b217b" fill-rule="evenodd"/>
      <path d="M79.21,42.55c-2.98,.64-2.13,4.98,.88,4.47,2.82-.48,2.16-5.12-.88-4.47Z" fill="#fff" fill-rule="evenodd"/>
      <path d="M57.26,56.49c.29,.04,.24,.12,.24-.15l-.24,.15c-.16-.25-.12,.11-.19-.52v-12.47s7.28,.01,7.28,.01l.05,7.89-.19,.13c-.32-.06-.25-.13-.25,.18l.25-.18c.29,.06,.27,.14,.19-.13,.32-.8,.24-6.75,.08-8.05l-7.57,.07v13.3s.36-.23,.36-.23Z" fill="#5d5d5d" fill-rule="evenodd"/>
      <path d="M62.73,65.79c.02,.2,.03,.36,.03,.5,0,.14-.01,.25-.04,.34-.02,.09-.06,.15-.1,.2-.04,.05-.1,.07-.16,.08l-3.27,.37,1.19,10.51c0,.07,0,.13-.05,.19-.04,.06-.1,.11-.2,.16-.1,.04-.23,.09-.4,.13-.17,.04-.38,.07-.64,.1-.26,.03-.47,.04-.64,.04-.17,0-.31-.01-.41-.03-.11-.02-.18-.06-.23-.11-.05-.05-.08-.11-.09-.17l-1.19-10.51-3.26,.37c-.07,0-.13,0-.18-.04-.05-.03-.1-.09-.14-.17-.04-.08-.08-.19-.11-.32-.03-.14-.06-.3-.08-.5-.02-.2-.04-.37-.03-.52,0-.14,.01-.26,.04-.35,.02-.09,.06-.15,.1-.19,.04-.04,.1-.07,.16-.08l9.19-1.04c.06,0,.12,0,.17,.04,.06,.03,.1,.09,.15,.17,.04,.08,.08,.19,.11,.33,.03,.14,.06,.31,.08,.51Z" fill="#fff" fill-rule="evenodd"/>
      <path d="M76.04,69.58c.12,1.08,.1,2.06-.07,2.95-.17,.88-.49,1.65-.95,2.3-.46,.66-1.07,1.18-1.82,1.59-.75,.4-1.63,.66-2.66,.78-1.01,.12-1.91,.08-2.7-.1-.79-.18-1.46-.51-2.03-1-.57-.49-1.02-1.14-1.37-1.95-.35-.81-.59-1.79-.72-2.94-.12-1.06-.09-2.02,.08-2.89,.17-.87,.49-1.64,.95-2.29,.47-.65,1.07-1.18,1.82-1.58,.75-.41,1.64-.66,2.67-.78,.99-.11,1.87-.08,2.66,.09,.79,.18,1.46,.51,2.03,.99,.57,.49,1.03,1.13,1.38,1.93,.35,.8,.59,1.76,.72,2.89h0Zm-2.76,.46c-.08-.69-.2-1.3-.37-1.85-.17-.55-.41-1.01-.71-1.38-.3-.37-.68-.64-1.14-.81-.45-.17-1-.22-1.65-.15-.65,.07-1.18,.26-1.59,.55-.41,.29-.73,.66-.95,1.1-.22,.44-.36,.94-.41,1.5-.05,.56-.04,1.15,.03,1.76,.08,.71,.21,1.34,.38,1.9,.17,.56,.41,1.02,.71,1.39,.3,.38,.68,.64,1.13,.81,.45,.16,1.01,.2,1.66,.13,.65-.07,1.18-.25,1.59-.55,.41-.29,.73-.66,.95-1.11,.22-.45,.36-.95,.4-1.52,.05-.56,.04-1.16-.03-1.79Z" fill="#fff" fill-rule="evenodd"/>
      <path d="M90.71,73.45c.02,.2,.03,.37,.03,.51,0,.14-.01,.26-.04,.35-.02,.09-.06,.17-.1,.21-.05,.04-.1,.07-.17,.08l-5.97,.68c-.22,.03-.42-.02-.58-.13-.17-.11-.27-.32-.3-.61l-1.34-11.84c0-.07,0-.13,.05-.19,.04-.06,.1-.11,.2-.16,.1-.04,.23-.09,.4-.13,.17-.04,.38-.07,.64-.1,.26-.03,.48-.04,.65-.04,.17,0,.31,.01,.41,.03,.11,.02,.18,.06,.23,.11,.05,.05,.08,.1,.09,.17l1.19,10.49,4.1-.46c.07,0,.13,0,.18,.04,.06,.03,.1,.09,.14,.17,.04,.08,.08,.19,.12,.33,.03,.14,.06,.31,.08,.51Z" fill="#fff" fill-rule="evenodd"/>
      <path d="M100,72.42c.02,.19,.03,.36,.03,.49,0,.13-.01,.24-.04,.33-.02,.09-.06,.15-.11,.19-.05,.04-.1,.07-.16,.08l-6.55,.74c-.22,.03-.42-.02-.58-.13-.17-.11-.27-.32-.3-.61l-1.29-11.36c-.03-.3,.02-.52,.15-.67,.14-.15,.32-.23,.54-.26l6.51-.74c.06,0,.12,0,.17,.03,.05,.03,.1,.08,.14,.16,.04,.08,.08,.18,.11,.31,.03,.13,.06,.29,.08,.5,.02,.19,.03,.35,.03,.48,0,.13-.01,.24-.04,.32-.02,.08-.06,.15-.1,.19-.04,.04-.09,.07-.15,.07l-4.65,.53,.36,3.18,3.94-.44c.06,0,.12,0,.17,.03,.06,.03,.1,.08,.15,.16,.04,.07,.08,.18,.11,.31,.03,.13,.06,.29,.08,.47,.02,.2,.03,.36,.03,.49,0,.13-.01,.24-.04,.31-.02,.08-.06,.14-.11,.18-.05,.04-.1,.06-.16,.07l-3.94,.44,.42,3.68,4.7-.53c.06,0,.12,0,.17,.04,.05,.03,.1,.09,.14,.16,.04,.08,.08,.18,.11,.31,.03,.13,.06,.29,.08,.48Z" fill="#fff" fill-rule="evenodd"/>
      <path d="M109.78,60.21c.02,.2,.03,.36,.03,.5,0,.14-.01,.25-.04,.34-.02,.09-.06,.15-.1,.2-.05,.05-.1,.07-.16,.08l-3.27,.37,1.19,10.51c0,.07,0,.13-.05,.19-.04,.06-.1,.11-.2,.16-.1,.04-.23,.09-.4,.13-.17,.04-.38,.07-.64,.1-.26,.03-.47,.04-.64,.04-.17,0-.31-.01-.42-.03-.11-.02-.18-.06-.23-.11-.05-.05-.08-.11-.09-.17l-1.19-10.51-3.26,.37c-.07,0-.13,0-.18-.04-.05-.03-.1-.09-.14-.17-.04-.08-.08-.19-.11-.32-.03-.14-.06-.3-.08-.5-.02-.2-.04-.37-.03-.52,0-.14,.01-.26,.04-.35,.02-.09,.06-.15,.1-.19,.04-.04,.1-.07,.16-.08l9.19-1.04c.06,0,.12,0,.17,.04,.06,.03,.1,.09,.15,.17,.04,.08,.08,.19,.11,.33,.03,.14,.06,.31,.08,.51Z" fill="#fff" fill-rule="evenodd"/>
    </g>
  </g>
</svg>