<?xml version="1.0" encoding="UTF-8"?><svg id="Layer_2" xmlns="http://www.w3.org/2000/svg" width="113.12" height="113.12" viewBox="0 0 113.12 113.12"><g id="Layer_1-2"><g><path d="M47.28,22.76l-9.57-7.66c-5.05-4.09-5.55-5.48-7.86-3.58l-10.63,8.37c0-6.47,1.19-5.74-9.28-5.74-3.48,0-3.09,1.53-3.09,4.86l.02,9.96c-.02,.98,.05,.97-.51,1.48l-1.13,.86c-5.04,4.07-6.73,4.33-3.75,7.42,1.67,1.72,4.9,5.91,6.25,5.91,.6,0,.61-.11,1.1-.22,0,1.79-.34,19.27,.27,20.5,.32,.65,1.05,1.15,1.94,1.15H52.14c2.76,0,1.99-3.1,1.99-6.85v-8.84s.08,.05,.1,.12c.13,.72,3.11,4.74,4.16,5.79,1.27,1.27,2.54,2.47,4.1,3.41,1.81,1.09,1.37,.25,1.37,5.92,0,.81-1.76,1.06-3.29,1.57-1.23,.41-2.54,.89-3.78,1.3-2.93,.96-12.58,3.95-14.53,5.36l-2.55,2.31c-.68,.76-1.68,2.09-1.93,3.15h-.44c-.63-2.69-5.43-6.97-8.33-8.24-8.92-3.91-17.41-1.51-23.99,5.31-2.12,2.19-5.02,7.56-5.02,11.77,0,5.82,.13,9.01,3.76,14.14,3.18,4.5,9.73,8.62,15.24,8.62,6.16,0,9.57-.47,14.65-4.57,.64-.52,.84-.64,1.43-1.23,.47-.47,.98-1.21,1.38-1.5,0,1.91,0,3.83,0,5.75-.01,2.01,.04,3.75,1.99,3.75H111.36c.81,0,1.77-.61,1.77-1.33v-28.72c0-3.73-3.05-8.03-6.55-9.8-1.41-.71-19.07-6.86-20.62-6.99v-5.74c.95-.5,2.59-1.45,3.37-2.16,3.09-2.79,5.45-5.51,6.99-9.58,.64-1.69,1.06-4.03,1.18-4.34,.41-1,1.53-.48,3.62-1.91,3.13-2.13,4.83-6.61,3.18-10.52-.42-1-1.09-1.45-1.12-2.85-.22-9.29-2.97-16.37-9.75-22.28-4.3-3.75-10.75-6.9-17.18-6.9-5.7,0-7.31,.2-12.53,2.27-4.15,1.64-7.63,4.56-10.5,7.84-1.02,1.16-1.74,2.27-2.56,3.62-1.01,1.67-3.35,6.59-3.35,9.02h0Zm-19.95,23.84h8.83l.09,15.67h-8.87l-.06-15.67h0Zm31.66-9.48c0-6.99,10.61-7.49,10.61,0h-3.54c-.18-2.14-2.9-2.72-3.54,0h-3.54Zm21.21-.88c0-2.52,2.7-4.86,5.47-4.75,2.91,.12,5.14,2.32,5.14,5.63h-3.09c-1.19,0-.19-1.77-2.21-1.77-1.16,0-1.68,.68-1.77,1.77h-3.54v-.88h0Zm3.54,11.27c0,7.21-17.68,7.22-17.68,0h3.09c.41,0,3.78,3.08,9.18,1.23,3.18-1.09-.53-1.23,5.4-1.23h0ZM10.65,18.03l4.99,.11v5l-4.99,4v-9.1h0Zm-6.05,18.53L31.55,14.82l15.29,12.29v2.87c-.71,.83-1.18,1.71-1.34,2.67l-12.71-10.07c-.91-.7-1.69-.68-2.57,0L8.06,40.51l-3.46-3.96h0Zm7.98,4.66l19.06-15.14,13.58,10.87c.77,3.26,2.18,5.17,5.4,6.49l.11,18.84h-11.1l-.07-17.66c-.03-.97-.43-1.58-1.66-1.66h-12.33c-1.19,.05-1.88,.82-1.89,1.87v17.45s-11.1,0-11.1,0l.02-21.06h0Zm39.64-.81c-1.97-.49-3.64-2.56-3.64-5.05s1.67-4.56,3.64-5.05v10.09h0Zm45.69,0v-10.09c1.97,.49,3.64,2.56,3.64,5.05s-1.67,4.56-3.64,5.05h0ZM75.12,3.22c13.55,0,24.58,10.66,24.66,23.87l-7.72-.63-3.2-4.63-3.11-.13-10.78,6.79v-5.38l-.79-1.62-1.84,.05-13.54,4.83-8.25,.75c.07-13.21,11.02-23.88,24.57-23.88h0Zm16.31,26.75h3.01v11.18c.01,.25,.02,.5,.02,.75s0,.5-.02,.75v.03h0c-.44,9.63-8.94,17.31-19.36,17.31s-18.92-7.68-19.36-17.31h-.02v-12.72h3.84l11.88-4.69v6.32c-.09,1.68,1.24,2.2,3.12,1.22l12.22-7.54,2.26,3.18c1,1.4,1.17,1.39,2.42,1.51h0Zm-23.72,32.05c5.26,1.86,10.08,1.72,14.57,0v3.84c0,3.82-3.13,7.06-7.06,7.06h-.44c-4.09,0-7.06-3.25-7.06-7.06v-3.84h0Zm-27.15,47.39v-8.79h2.13l3.74-3.61,2.37,2.35c.63,.65,1.37,.7,2.1,0l2.24-2.24,2.43,2.43c.9,.72,1.62,.57,2.24,0l2.96-2.96,3.19,3.19c.69,.62,1.39,.59,2.08,0l1.38-1.38,1.77,1.85c1.68,1.76,3.4,1.28,4.99-.18l7.18-6.61c1.01-.86,1.1-1.72,0-2.87l-7.79-7.98H40.79c.52-3.53,1.98-5.43,5.22-6.51l18.83-6.29c4.15,9.15,16.91,8.84,20.31,0l18.83,6.29c4.28,1.43,5.45,4.29,5.45,10.41v22.93h-10.74v-14.22c0-.99-.81-1.79-1.79-1.79h0c-.99,0-1.79,.81-1.79,1.79v14.22H40.55Zm-20.29-36.48c7.93,0,14.55,5.77,16.18,13.48l35.63-.06,5.74,5.74-5.74,5.52h-.69l-2.89-2.89c-.67-.49-1.32-.57-1.95,0l-1.55,1.55-3.05-3.05c-.82-.89-1.65-.81-2.47,0l-2.84,2.84-2.35-2.55c-.73-.64-1.42-.62-2.06,0l-2.31,2.31-2.24-2.35c-.7-.71-1.32-.77-2.14,0l-3.84,3.84h-5.43c-2.62,5.89-8.09,9.98-16.01,9.98S3.7,99.58,3.7,90.09s7.42-17.17,16.57-17.17h0Zm-6.48,9.44c4.27,0,7.73,3.46,7.73,7.73s-3.46,7.73-7.73,7.73-7.73-3.46-7.73-7.73,3.46-7.73,7.73-7.73h0Zm0,3.37c2.41,0,4.36,1.95,4.36,4.36s-1.95,4.36-4.36,4.36-4.36-1.95-4.36-4.36,1.95-4.36,4.36-4.36Z" fill="#5b217b" fill-rule="evenodd"/><path d="M75.11,3.21c13.55,0,24.58,10.66,24.66,23.87l-7.72-.63-3.2-4.63-3.11-.13-10.78,6.79v-5.38l-.79-1.62-1.84,.05-13.54,4.83-8.25,.75c.07-13.21,11.02-23.88,24.57-23.88h0ZM40.55,109.4h54.55v-14.22c0-.99,.81-1.79,1.79-1.79h0c.99,0,1.79,.81,1.79,1.79v14.22h10.74v-22.93c0-6.12-1.17-8.98-5.45-10.41l-18.83-6.29c-3.4,8.84-16.16,9.15-20.31,0l-18.83,6.29c-3.24,1.08-4.7,2.99-5.22,6.51h32.77s7.79,7.99,7.79,7.99c1.1,1.16,1.01,2.02,0,2.87l-7.18,6.61c-1.59,1.47-3.31,1.94-4.99,.18l-1.77-1.85-1.38,1.39c-.69,.59-1.39,.62-2.08,0l-3.19-3.19-2.96,2.96c-.63,.57-1.34,.72-2.24,0l-2.43-2.43-2.24,2.25c-.73,.7-1.47,.65-2.1,0l-2.37-2.35-3.74,3.61h-2.13v8.79Z" fill="#1dbcec" fill-rule="evenodd"/></g></g></svg>