<?xml version="1.0" encoding="UTF-8"?>
<svg id="Layer_2"
  xmlns="http://www.w3.org/2000/svg" width="109.13" height="109.11" viewBox="0 0 109.13 109.11">
  <g id="Layer_1-2">
    <g>
      <path d="M108.82,60.48c.89-8.37-.17-16.72-2.8-24.1-2.39-6.72-6.06-12.86-9.89-17.14-4.95-5.52-1.77-2.25-7.04-6.81C81.52,5.88,71.1,1.51,60.6,.34,30.75-2.99,3.59,18.75,.33,48.5c-.91,8.28,.08,16.82,2.78,24.21,1.55,4.24,5.4,12.09,8.31,15.42,.7,.8,.96,.9,1.57,1.72,3.47,4.66,9.71,9.36,14.99,12.38,13.46,7.7,30.15,8.88,44.77,3.81,3.39-1.17,6.26-2.57,9.24-4.28,3.25-1.86,5.25-3.72,7.89-5.63,3.36-2.43,4.27-3.96,6.85-7.01,2.15-2.54,3.73-4.88,5.51-8,3.28-5.74,5.78-13.1,6.58-20.64Z" fill="#868600" fill-rule="evenodd"/>
      <path d="M42.86,64.77c-1.7-4.13-6.73-11.95-10.41-13.93-5.85-3.15-14.05,3.74-9.6,10.59,4.28,6.59,5.37,7.6,10.34,14.05,15.89,20.58,16.59-1.89,20.16-11.54,2.59-7.01,6.87-16.18,11.42-21.88,4.02-5.03,7.46-9.97,14.03-13.34,4.74-2.44,7.86-2.74,8.76-3.28-6.26-.77-12.6,.68-17.43,3.19-3.91,2.03-9.32,6.38-11.73,9.37-3.08,3.82-5.9,7.15-8.79,12.3-1.23,2.18-2.37,4.57-3.52,7.03l-3.07,7.24c-.02-.05-.1,.14-.16,.21Z" fill="#fff" fill-rule="evenodd"/>
    </g>
  </g>
</svg>