<?xml version="1.0" encoding="UTF-8"?>
<svg id="Layer_2"
    xmlns="http://www.w3.org/2000/svg" width="101.96" height="90.34" viewBox="0 0 101.96 90.34">
    <g id="Layer_1-2">
        <g>
            <path d="M27.29,16.31V5.65c0-3.11,2.54-5.65,5.64-5.65h26.91c3.1,0,5.64,2.54,5.64,5.65v10.66h-7.66v-6.42h-22.88v6.42h-7.66Z" fill="#868600" fill-rule="evenodd"/>
            <path d="M11.15,15.69H89.96c1.1,0,1.99,.9,1.99,1.99v30.04l-4.67-3.11V21.43c0-1.02-.84-1.86-1.86-1.86h-10.56v23.38l-5.13,1.28V19.56H22.2v52.99H56.36l.44,3.13h4.9l1.16,1.71H11.15v-4.84h6.48V19.56h-6.48v-3.88Zm-9.16,0H11.15v3.88H6.53c-1.02,0-1.86,.84-1.86,1.86v49.27c0,1.02,.84,1.86,1.86,1.86h4.62v4.84H1.99c-1.1,0-1.99-.9-1.99-1.99V17.68c0-1.1,.9-1.99,1.99-1.99Z" fill="#61154b" fill-rule="evenodd"/>
            <path d="M78.22,72.39c3.27,0,5.94-2.67,5.94-5.94s-2.67-5.94-5.94-5.94-5.94,2.67-5.94,5.94,2.67,5.94,5.94,5.94Z" fill="#868600" fill-rule="evenodd"/>
            <path d="M79.22,88.95l.5,1.38,7.89-1.63v-5.89l3.26-2.57,5.01,2.19,4.32-7.08-4.51-3.82,.62-4.62,5.66-2.12-1.83-7.77-5.2,.38-2.99-4.59,1.43-4.15-6.67-4.44-3.24,4.44-4.25-.62v4.68l4.26,.84,2.89-3.96,3.19,1.95-1.27,3.7,3.36,5.02,4.63-.33,1.28,3.61-5.04,1.89-1.29,5.61,4.02,3.75-1.91,2.82-4.46-1.95-4.23,2.81v5.47l-3.77,.37-1.66-3.74v8.37Zm-10.29-38.96l-3.67,2.74-5.22-2.04-4.36,6.86,4.08,3.32-.38,5.15-4.9,2.09,2.32,7.57h4.9l2.48,3.67-1.68,5.16,6.42,3.93,3.64-3.64,5.39,.63,1.26,3.5v-8.37l-.19-.44-5.46-.74-3.24,3.41-3.43-1.96,1.5-4.6-2.17-3.98h-4.37l-.98-3.89,4.36-1.86,.63-4.68-3.64-2.96,1.6-3.53,4.65,1.81,3.98-3.48-1.21-4.66,3.86-1.55,1.68,4.75,2.43,.48v-4.68l-.99-.15-1.89-5.33-7.49,1.87,.09,5.55Z" fill="#868600" fill-rule="evenodd"/>
        </g>
    </g>
</svg>