<?xml version="1.0" encoding="UTF-8"?>
<svg id="Layer_2"
  xmlns="http://www.w3.org/2000/svg" width="86.62" height="113.5" viewBox="0 0 86.62 113.5">
  <g id="Layer_1-2">
    <g>
      <path d="M63.05,17.86l7.28,6.37c.35,.31,.6,.42,.99,.73l1.89,1.53c1.41,1.05,3.84,2.47,5.74,2.94-1.77-4.43-6.62-9.82-9.67-13.74-.51-.66-1.02-1.26-1.47-1.99,2.65-2.21,3.95-3.26,7.12-5.08,1.73-1,2.7-1.1,3.56-2.6,.93-1.63,.55-3.51-.55-4.64-3.28-3.39-6.95,.68-9.94,2.71-2.44,1.66-3.68,3.38-4.95,4.27l-6.72-5.59c-.71-.55-1.09-.78-1.83-1.25-.61-.39-1.33-.98-1.88-1.2-3.56-1.46-6.77,2.41-5.03,5.71,.7,1.33,2.14,1.71,3.59,2.57,1.44,.86,2.46,1.51,3.73,2.44,1.19,.87,2.49,1.67,3.43,2.69l-5.9,7.51c-1.41,1.82-4.62,6.4-5.27,8.17,2.03-.33,4.92-2.35,6.63-3.57,.69-.49,1.16-.97,1.86-1.56,1.19-1.01,2.35-1.75,3.7-3.16l3.7-3.27Z" fill="#e6340d" fill-rule="evenodd"/>
      <g>
        <path d="M27.55,23.69c6.52,0,11.85-5.32,11.85-11.85S34.08,0,27.55,0,15.71,5.32,15.71,11.85s5.32,11.85,11.85,11.85Z" fill="#61154b" fill-rule="evenodd"/>
        <path d="M55.59,62.33h-17.4c-2.25-.1-2.87-.31-3.79-1.9l-6.34-16.75c-1-3.72,3.63-5.91,5.82-2.12l4.75,12.6c.91,1.84,.88,1.94,3.13,1.94h13.79c4.41,0,5.26,6.23,.04,6.23Z" fill="#61154b" fill-rule="evenodd"/>
        <path d="M62.48,98.34h22.23c2.2,0,2.82,4.03,.12,4.18h-24.63c1.4-1.73,1.74-2.19,2.29-4.18Z" fill="#61154b" fill-rule="evenodd"/>
        <path d="M58.92,85.36c-.76,15.67-13.65,28.14-29.44,28.14S0,100.24,0,83.89c0-12.98,8.32-24.01,19.89-28.01,.38,3.31,2.21,6.07,4.88,8.42-8.45,2.1-14.71,9.73-14.71,18.82,0,10.71,8.68,19.39,19.39,19.39s19.39-8.68,19.39-19.39c0-2.94-.66-5.73-1.83-8.23,3.31,1.14,6.37,2.21,8.79,3.29l.37,3.62,2.74,3.56Z" fill="#868600" fill-rule="evenodd"/>
        <path d="M42.6,51.92c-.11-6.96-.63-13.54-2.95-18.47-2.66-5.25-6.3-7.5-10.84-6.94-5.35,.65-8.54,3.66-9.47,9.07-.41,12.17-.88,43.53,15.93,43.53h16.48c2.82,0,2.9,.69,4.44,2.69l10.75,13.98c5.59,6.89,14.88-1.98,10.57-7.2l-14.36-18.23c-2.11-2.58-2.43-3.67-6.69-3.67h-19.34c-4.83,0-5.93-2.33-7.37-6.13l-5.9-15.53c-3.25-8.54,9.3-14.16,13.85-5.9l4.92,12.81Z" fill="#61154b" fill-rule="evenodd"/>
      </g>
    </g>
  </g>
</svg>