<?xml version="1.0" encoding="UTF-8"?>
<svg id="Layer_2"
    xmlns="http://www.w3.org/2000/svg" width="103.15" height="83.86" viewBox="0 0 103.15 83.86">
    <g id="Layer_1-2">
        <g>
            <g>
                <path d="M66.77,39.53l27.95,28.01,1.24-1.21c.44-.43,1.18-.42,1.6,.01l3.28,3.35c.43,.44,.43,1.17-.01,1.6l-12.52,12.24c-.44,.43-1.17,.43-1.6-.01l-3.28-3.35c-.44-.45-.43-1.17,.01-1.6l.82-.81-17.5-17.51v-4.59l19.28,19.28,4.69-4.69-23.96-23.78v-6.93Zm-28.59-3.77l-3.28-3.35c-.44-.45-.43-1.17,.01-1.6l12.52-12.24c.44-.43,1.18-.42,1.6,.01l3.29,3.35c.43,.44,.43,1.17-.01,1.6l-.75,.74,15.23,15.26v6.93l-19.44-19.29-4.52,4.52,23.96,23.96v4.59l-25.71-25.73-1.28,1.25c-.44,.43-1.17,.43-1.6-.01Z" fill="#61154b" fill-rule="evenodd"/>
                <path d="M23.65,6.49c5.88,.03,11.84,2.12,16.64,6.63l.71,1.01,.86-.84c.44-.43,1.18-.42,1.6,.01l3.29,3.35c.43,.44,.43,1.17-.01,1.6l-12.52,12.24c-.44,.43-1.17,.43-1.6-.01l-3.28-3.35c-.44-.45-.43-1.17,.01-1.6l1.41-1.38-.81-.69c-2.03-1.53-4.13-2.46-6.3-2.58v-2.95c2.61,.28,5.26,1.65,8.56,3.96l5.24-5.24c-4.83-3.6-9.35-5.63-13.8-5.85V6.49ZM6.69,12.99c4.53-4.22,10.7-6.53,16.96-6.5v4.31c-4.59-.23-9.1,1.45-13.8,5.3l4.89,4.82c3.41-2.35,6.14-3.29,8.91-2.99v2.95c-2.16-.12-4.4,.54-6.74,2.18l.77,.76c.44,.43,.44,1.17,.02,1.6l-3.29,3.35c-.43,.43-1.16,.45-1.6,.02L.34,16.51c-.44-.43-.45-1.16-.02-1.6l3.29-3.35c.44-.44,1.17-.45,1.6-.02l1.47,1.45Z" fill="#61154b" fill-rule="evenodd"/>
            </g>
            <g>
                <path d="M48.92,44.96l8.65,8.65-23.9,27.35c-2.46,1.9-5.01,2.56-7.28,2.34v-3.99c2.13,0,3.86-1.73,3.86-3.86s-1.73-3.86-3.86-3.86v-7.02l22.54-19.62Zm-22.54,38.35c-6.39-.61-10.63-8.16-4.86-14.49l4.86-4.23v7.02c-2.13,0-3.86,1.73-3.86,3.86s1.73,3.86,3.86,3.86v3.99Z" fill="#868600" fill-rule="evenodd"/>
                <path d="M62.44,33.1l3.49-3.49c3.88-5.09,2.78-9.11,2.6-12.82-.53-10.82,10.78-18.9,21.55-16.31l-8.18,8.5c-1.35,1.59-1.27,3.12,0,4.58l6.99,6.99c1.49,1.4,3.05,1.29,4.67,0l8.36-8.36c4.78,8.53-5.05,20.52-14.04,21.58-3.52,.41-7.04-1.08-10.93,.28-1.85,.64-3.55,2.26-5.64,3.97l-1.9,1.95-6.95-6.86Z" fill="#868600" fill-rule="evenodd"/>
            </g>
        </g>
    </g>
</svg>