<svg xmlns="http://www.w3.org/2000/svg" width="129.354" height="135.287" viewBox="0 0 129.354 135.287">
    <path id="Path_1" data-name="Path 1" d="M5719.334,16580.025c0,28.424.166,74.127.166,103.934,0,.008,0,.016.054.246.077,7.369,5.415,14.1,14.9,15.426,1.488.209,67.385,0,96.686,0,10.284,0,16.552-8.455,16.552-12.057v-76.449c-.948-6.535-6.757-8.9-9.522-9.8-3.337-.275-16.03,1-27.945-4.791-10.713-5.2-17.508-16.473-18-17.646-1.02-2.432-5.412-13.494-13.825-13.494s-42.872.082-45.308.082C5730.918,16565.857,5720.313,16566.443,5719.334,16580.025Z" transform="translate(-5718.834 -16564.896)" fill="#000000" stroke="#000000" stroke-width="1"/>
</svg>
