<?xml version="1.0" encoding="UTF-8"?>
<svg id="Layer_2"
    xmlns="http://www.w3.org/2000/svg" width="79.13" height="107.78" viewBox="0 0 79.13 107.78">
    <g id="Layer_1-2">
        <g>
            <path d="M39.54,107.78h27.55c12.83,0,11.99-8.54,11.99-17.1V26.29c-27.45,0-24.41,2.68-24.41-26.05h-15.12V4.72h10.56c0,26.34-.09,26.14,23.73,26.14v56.77c0,7.85,.73,15.68-10.4,15.68h-23.9v4.47Zm-26.53,0h26.53v-4.47H16.53c-9.56,0-10.56-6.98-10.63-14.58L5.24,15.58c0-5.97,4.63-10.86,10.28-10.86h24.03V.24H11.85C5.33,.24,0,5.57,0,12.09L.75,91.88c.08,8.28,1.24,15.9,12.26,15.9Z" fill="#017781" fill-rule="evenodd"/>
            <path d="M60.56,0V19.91h18.57L60.56,0Z" fill="#afcb1f" fill-rule="evenodd"/>
            <path d="M56.23,67.9v-3.19c2.2,.83,4.63,1.26,5.73-.09,.83-1.01,.52-2.34-.38-3.02-1-.75-3.13-.97-5.35-.96v-2.58c3.44,.02,6.9,.53,9.28,2.1,1.31,.87,2.78,2.98,1.81,5.29-.49,1.16-.78,1.61-1.64,2.2-2.49,1.7-6.76,1.05-9.44,.25Zm0-9.84v2.58c-2.42,0-4.95,.29-6.22,.48,.18,.31,2.13,1.57,2.45,1.76,.8,.49,2.23,1.26,3.76,1.83v3.19l-.21-.06c-2.7-.84-5.38-2.35-7.54-3.99-1.38-1.05-1.44-1.51-2.33-1.33-2.28,.47-4.47,.98-6.62,1.55v-3.57c.82-.2,4.11-.95,4.4-1.16-.13-.22-.46-.55-.66-.76-.71-.7-1.37-1.57-2-2.37-.44-.56-.81-1.1-1.26-1.68l-.48-.7V27.44c.84,.49,1.25,.98,1.79,1.74,1.07,1.52,1.6,3.95,1.52,6.19-.18,5.01-1.14,8.32-2.5,12.9-.11,.38,.21,.73,.53,1.25l3.11,4.58c.24,.34,.55,.76,.82,1.07l1.8,2.04c1.5,1.65,1.18,1.52,2.32,1.37,2.12-.28,4.71-.54,7.31-.53Zm-16.69-30.61v26.39l-.71-1.03-2.21,5.53v-15.68c.77-1.78,3.73-13.24,.03-13h-.03s0-2.91,0-2.91c.96-.04,2,.21,2.72,.6,.07,.04,.14,.07,.2,.11h0Zm0,33.05v3.57c-.98,.26-1.95,.53-2.92,.82v-3.58c.22-.07,.44-.14,.66-.2,.72-.2,1.46-.4,2.2-.59l.06-.02Zm-14,7.76c-1.69,2.81-2.46,3.81-4.37,6.11-.17,.21-.62,.73-1.21,1.33v4.88c1.29-.57,2.47-1.42,3.49-2.28,3.12-2.62,6.31-7.35,8.41-10.8,1-1.64,.4-1.26,2.11-1.81,.88-.29,1.77-.56,2.65-.82v-3.58c-.5,.16-1,.32-1.48,.44,.23-.66,.68-1.49,.99-2.17l.5-1.24v-15.68c-.03,.06-.05,.12-.07,.16-1.33-2.69-3.25-12.89,.07-13.16v-2.91c-.15,0-.3,.02-.45,.04-2.14,.34-3.4,1.82-3.97,3.78-1.21,4.19,.46,10.45,2.09,14.4,.18,.44,.54,.94,.4,1.42-1.1,3.6-4.05,10.49-5.56,13.66l-1.92,3.8c-.37,.75-.19,.61-1.01,.95-1.86,.76-4.09,1.78-6.24,2.97v3.37c1.2-.71,2.41-1.3,3.82-2.05,.46-.24,1.28-.66,1.76-.81Zm-5.58,7.45c-1.44,1.45-3.77,3.33-5.16,2.08-1.2-1.07,.48-2.95,1-3.52,.42-.46,.89-.82,1.4-1.24,.96-.78,1.86-1.38,2.76-1.92v-3.37c-3.19,1.76-6.23,3.91-7.67,6.17-1.29,2.02-.99,4.16,.33,5.74,.37,.45,1.61,1.14,2.47,1.38,1.74,.49,3.38,.2,4.87-.46v-4.88Z" fill="#e31e24" fill-rule="evenodd"/>
        </g>
    </g>
</svg>