<?xml version="1.0" encoding="UTF-8"?>
<svg id="Layer_2"
  xmlns="http://www.w3.org/2000/svg" width="96.51" height="118.88" viewBox="0 0 96.51 118.88">
  <g id="Layer_1-2">
    <g>
      <path d="M81.11,17.69c4.43-.18,5.94,6.89,.97,8.09-.34,.08-.66,.12-.97,.13v14.61h3.41c3.41,0,8.26,.95,8.96-3.08,.22-1.26,.06-26.76,.06-29.93,0-2.08-.56-3.44-1.92-4.16-1.42-.75-7.48-.53-10.51-.47v14.81Zm-1.04,.16c.36-.1,.71-.15,1.04-.16V2.88c-.39,0-.72,.01-1,.01h-15.38v14.78c1.99-.04,3.61,1.47,3.98,3.11,.7,3.16-1.63,4.98-3.98,5.01v14.74h16.38v-14.62c-4.45,.14-5.91-6.72-1.04-8.06Zm-15.34-14.96v14.78c-.27,0-.55,.04-.84,.11-2,.48-3.71,2.23-3.16,4.84,.46,2.21,2.23,3.2,4,3.17v14.74h-4.35c-.33,.04-7.49,3.91-12.02,6.4V25.82c.33,0,.67-.06,1.03-.15,1.86-.48,3.52-2.48,2.93-4.92-.41-1.69-1.9-3.17-3.96-3.13V2.9h16.37Zm-16.37,0v14.72c-.31,0-.62,.05-.95,.12-4.98,1.18-3.53,8.21,.95,8.07v21.12c-1.77,.97-3.14,1.74-3.55,1.98-.2-.12-.21,.23-.2-.95l-.04-7.45-4.44-.07c-1.7-.07-2.95-1.34-3.28-2.89-.25-1.16-.08-26.69-.09-29.91,0-5.06,2.64-4.75,7.17-4.75h4.42Z" fill="#afcb1f" fill-rule="evenodd"/>
      <path d="M56.72,45.64c1.15-.66,2.3-1.26,3.52-1.93,1.25-.69,3.57-.35,5.19-.35,3.71,0,7.44-.04,11.15,0,.29,1.32,.07,6.61,.07,8.34v58.07c0,1.38-.02,2.5-.74,3.53-2.16,3.05-5.27,2.23-10.2,2.23h-8.98v3.3h9.64c2.54,0,6.22,.28,8.41-.52,1.87-.68,3.76-2.51,4.51-4.3,.96-2.29,.66-5.57,.66-8.25,0-20.74,.13-41.73,0-62.41,3.04,0,6.08,0,9.12,0,3.07,0,4.95-1.05,6.16-2.85,1.55-2.29,1.14-4.89,1.14-7.9V14.46c0-5.57,1.36-11.82-4.17-13.95-1.9-.73-6.19-.45-8.47-.45h-27V2.9h23.39c2.4,0,9.91-.4,11.51,.45,1.36,.72,1.92,2.08,1.92,4.16,0,3.18,.15,28.67-.06,29.93-.7,4.03-5.55,3.08-8.96,3.08h-24.14c-.15,.03-1.64,.8-3.66,1.88v3.24Zm-15.01-2.25l.19,10.27,14.72-7.96,.1-.06v-3.24c-4.29,2.28-10.93,5.93-11.91,6.51-.2-.12-.21,.23-.2-.95l-.04-7.45-4.44-.07c-1.7-.07-2.95-1.34-3.28-2.89-.25-1.16-.08-26.69-.09-29.91,0-5.06,2.64-4.75,7.17-4.75h12.78V.06h-9.18c-2.07,0-7.14-.24-8.81,.23-2.29,.64-3.88,2.26-4.54,4.54-.63,2.17-.03,13.99-.28,17.75-5.92,.11-11.94,0-17.86,0-6.34,0-11.43-.98-14.52,3.39C-.09,28.25,.05,30.28,.05,33.41V104.83c0,2.39-.26,6.44,.4,8.51,.68,2.12,2.44,3.91,4.21,4.74,2.26,1.06,5.34,.75,8.04,.75H56.72v-3.3H16.03c-2.5,0-6.03,.21-8.41-.03-2.16-.21-3.93-1.93-4.23-4.03-.29-2.03-.06-6-.06-8.24V45.03c0-2.87-.34-14.39,.37-16.21,.94-2.42,3.1-2.94,5.39-2.94,8.02,.02,17.07-.2,24.83,.01,0,2.01-.1,10.43,.06,11.73,.55,4.45,3.87,5.57,7.73,5.76Z" fill="#017781" fill-rule="evenodd"/>
      <path d="M25.79,45.85h-5.66v2.89l8.49,.02,.02-11.88c-.01-1.17-.08-1.02,.56-1.64,.59-.57,1.92-1.78,2.31-2.37l-2.01-1.95-.8,.73-8.59,.03v2.81h5.68c-.24,.48-4.45,4.65-5.68,5.8v4.11l5.66-5.62v7.07Zm-5.66,0h-5.68s.01-11.37,.01-11.37h5.67v-2.81l-8.58,.03v17.01s8.58,.02,8.58,.02v-2.88h0Zm0-5.58v4.11l-.18,.18c-.6-.38-2.83-2.75-3.64-3.55l-1.06-1.07,1.96-2.04,2.68,2.6c.06-.05,.14-.13,.25-.23Z" fill="#afcb1f" fill-rule="evenodd"/>
      <path d="M25.79,66.45h-5.66v2.89l8.49,.02,.02-11.88c-.01-1.17-.08-1.02,.56-1.64,.59-.57,1.92-1.78,2.31-2.37l-2.01-1.95-.8,.73-8.59,.03v2.81h5.68c-.24,.48-4.45,4.65-5.68,5.8v4.11l5.66-5.62v7.08Zm-5.66,0h-5.68s.01-11.37,.01-11.37h5.67v-2.81l-8.58,.03v17.01s8.58,.02,8.58,.02v-2.88h0Zm0-5.58v4.11l-.18,.18c-.6-.38-2.83-2.75-3.64-3.55l-1.06-1.07,1.96-2.04,2.68,2.6c.06-.05,.14-.13,.25-.23Z" fill="#afcb1f" fill-rule="evenodd"/>
      <path d="M25.79,86.98h-5.66v2.89l8.49,.02,.02-11.88c-.01-1.17-.08-1.02,.56-1.64,.59-.57,1.92-1.78,2.31-2.37l-2.01-1.95-.8,.73-8.59,.03v2.81h5.68c-.24,.48-4.45,4.65-5.68,5.8v4.11l5.66-5.62v7.08Zm-5.66,0h-5.68s.01-11.37,.01-11.37h5.67v-2.81l-8.58,.03v17.01s8.58,.02,8.58,.02v-2.88h0Zm0-5.58v4.11l-.18,.18c-.6-.38-2.83-2.75-3.64-3.55l-1.06-1.07,1.96-2.04,2.68,2.6c.06-.05,.14-.13,.25-.23Z" fill="#afcb1f" fill-rule="evenodd"/>
      <path d="M25.79,107.55h-5.66v2.89l8.49,.02,.02-11.88c-.01-1.17-.08-1.02,.56-1.64,.59-.57,1.92-1.78,2.31-2.37l-2.01-1.95-.8,.73-8.59,.03v2.81h5.68c-.24,.48-4.45,4.65-5.68,5.8v4.11l5.66-5.62v7.07Zm-5.66,0h-5.68s.01-11.37,.01-11.37h5.67v-2.81l-8.58,.03v17.01s8.58,.02,8.58,.02v-2.88h0Zm0-5.58v4.11l-.18,.18c-.6-.38-2.83-2.75-3.64-3.55l-1.06-1.07,1.96-2.04,2.68,2.6c.06-.05,.14-.13,.25-.23Z" fill="#afcb1f" fill-rule="evenodd"/>
      <g>
        <rect x="37.48" y="60.78" width="28.12" height="2.7" fill="#017781"/>
        <rect x="37.48" y="66.66" width="28.12" height="2.7" fill="#017781"/>
      </g>
      <g>
        <rect x="37.48" y="81.31" width="28.12" height="2.7" fill="#017781"/>
        <rect x="37.48" y="87.19" width="28.12" height="2.7" fill="#017781"/>
        <rect x="37.48" y="75.36" width="12.94" height="2.7" fill="#017781"/>
      </g>
      <g>
        <rect x="37.48" y="101.88" width="28.12" height="2.7" fill="#017781"/>
        <rect x="37.48" y="107.77" width="28.12" height="2.7" fill="#017781"/>
        <rect x="37.48" y="95.93" width="12.94" height="2.7" fill="#017781"/>
      </g>
    </g>
  </g>
</svg>