<?xml version="1.0" encoding="UTF-8"?>
<svg id="Layer_2"
    xmlns="http://www.w3.org/2000/svg" width="107.47" height="107.47" viewBox="0 0 107.47 107.47">
    <g id="Layer_1-2">
        <g>
            <circle cx="53.74" cy="53.74" r="53.74" transform="translate(-7.91 9.3) rotate(-9.22)" fill="#017781"/>
            <path d="M26,22.77h0c2.37-1.63,5.82-1.27,7.68,.81l20.05,22.39,20.05-22.39c1.86-2.08,5.32-2.44,7.68-.81h0c2.37,1.63,2.78,4.67,.92,6.75l-21.69,24.22,21.69,24.22c1.86,2.08,1.45,5.11-.92,6.75h0c-2.37,1.63-5.82,1.27-7.68-.81l-20.05-22.39-20.05,22.39c-1.86,2.08-5.32,2.44-7.68,.81h0c-2.37-1.63-2.78-4.67-.92-6.75l21.69-24.22L25.08,29.51c-1.86-2.08-1.45-5.11,.92-6.75Z" fill="#fefefe" fill-rule="evenodd"/>
        </g>
    </g>
</svg>